<svg xmlns="http://www.w3.org/2000/svg" xmlns:xlink="http://www.w3.org/1999/xlink" xml:space="preserve" version="1.1"
     style="shape-rendering:geometricPrecision;text-rendering:geometricPrecision;image-rendering:optimizeQuality;"
     viewBox="0 0 60000 60000" x="0px" y="0px" fill-rule="evenodd" clip-rule="evenodd"><defs><style type="text/css">
   
    .fil0 {fill:black;fill-rule:nonzero}
   
  </style></defs>
    <g><path class="fil0" d="M29999.99 13117.45l-23602.41 0c-414.29,0 -97.04,-1.41 -199.48,-0.95 -607.9,2.79 -1124.87,5.16 -1768.39,-219.12 -1221.86,-425.84 -2019.27,-1345.75 -2392.48,-2416.6 -163.68,-469.66 -245.53,-965.57 -245.53,-1458.74 0,-493.17 81.85,-989.09 245.53,-1458.75 373.21,-1070.86 1170.6,-1990.76 2392.48,-2416.59 643.52,-224.28 1160.49,-221.91 1768.39,-219.12 102.44,0.46 -214.81,-0.95 199.48,-0.95l47204.83 0c414.29,0 97.04,1.41 199.48,0.95 607.9,-2.79 1124.87,-5.16 1768.39,219.12 1221.86,425.84 2019.27,1345.75 2392.48,2416.6 163.68,469.66 245.53,965.57 245.53,1458.74 0,493.17 -81.85,989.09 -245.53,1458.75 -373.21,1070.86 -1170.6,1990.76 -2392.48,2416.59 -643.52,224.28 -1160.49,221.91 -1768.39,219.12 -102.44,-0.46 214.81,0.95 -199.48,0.95l-23602.42 0zm-23602.41 33765.1l47204.83 0c414.29,0 97.04,1.41 199.48,0.95 607.9,-2.79 1124.87,-5.16 1768.39,219.12 1221.88,425.83 2019.27,1345.73 2392.48,2416.59 163.68,469.66 245.53,965.58 245.53,1458.75 0,493.17 -81.85,989.08 -245.53,1458.74 -373.21,1070.85 -1170.62,1990.76 -2392.48,2416.6 -643.52,224.28 -1160.49,221.91 -1768.39,219.12 -102.44,-0.46 214.81,0.95 -199.48,0.95l-47204.83 0c-414.29,0 -97.04,-1.41 -199.48,-0.95 -607.9,2.79 -1124.87,5.16 -1768.39,-219.12 -1221.88,-425.83 -2019.27,-1345.73 -2392.48,-2416.59 -163.68,-469.66 -245.53,-965.58 -245.53,-1458.75 0,-493.17 81.85,-989.08 245.53,-1458.74 373.21,-1070.85 1170.62,-1990.76 2392.48,-2416.6 643.52,-224.28 1160.49,-221.91 1768.39,-219.12 102.44,0.46 -214.81,-0.95 199.48,-0.95zm23602.41 -12787.14l-23602.41 0c-414.29,0 -97.04,-1.41 -199.48,-0.95 -607.9,2.79 -1124.87,5.16 -1768.39,-219.12 -1221.86,-425.84 -2019.27,-1345.75 -2392.48,-2416.6 -163.68,-469.66 -245.53,-965.57 -245.53,-1458.74 0,-493.17 81.85,-989.09 245.53,-1458.75 373.21,-1070.86 1170.6,-1990.76 2392.48,-2416.59 643.52,-224.28 1160.49,-221.91 1768.39,-219.12 102.44,0.46 -214.81,-0.95 199.48,-0.95l47204.83 0c414.29,0 97.04,1.41 199.48,0.95 607.9,-2.79 1124.87,-5.16 1768.39,219.12 1221.86,425.84 2019.27,1345.75 2392.48,2416.6 163.68,469.66 245.53,965.57 245.53,1458.74 0,493.17 -81.85,989.09 -245.53,1458.75 -373.21,1070.86 -1170.6,1990.76 -2392.48,2416.59 -643.52,224.28 -1160.49,221.91 -1768.39,219.12 -102.44,-0.46 214.81,0.95 -199.48,0.95l-23602.42 0z"/></g>
    </svg>