<svg width="90" height="89" viewBox="0 0 90 89" fill="none" xmlns="http://www.w3.org/2000/svg">
<path d="M37 89C57.4345 89 74 72.4345 74 52C74 31.5655 57.4345 15 37 15C16.5655 15 0 31.5655 0 52C0 72.4345 16.5655 89 37 89Z" fill="#46A358" fill-opacity="0.13"/>
<mask id="mask0_101_368" style="mask-type:luminance" maskUnits="userSpaceOnUse" x="31" y="0" width="44" height="49">
<path d="M75 0H31V49H75V0Z" fill="white"/>
</mask>
<g mask="url(#mask0_101_368)">
<path d="M51.3011 44.0269C51.3209 44.5111 51.4599 44.9691 51.7181 45.3813C51.9398 45.7412 52.5057 45.3977 52.284 45.0411C52.0887 44.7237 51.9795 44.3867 51.9663 44.017C51.9464 43.595 51.2845 43.6081 51.3011 44.0269Z" fill="#46A358"/>
<path d="M59.8094 43.9838C59.7763 44.167 59.7399 44.3469 59.7068 44.5302C59.6737 44.7036 59.7664 44.8835 59.9451 44.9293C60.1106 44.9718 60.3158 44.8671 60.3489 44.6937C60.382 44.5105 60.4184 44.3306 60.4515 44.1474C60.4846 43.974 60.3919 43.794 60.2132 43.7482C60.0477 43.7057 59.8425 43.8104 59.8094 43.9838Z" fill="#46A358"/>
<path d="M64.3406 44.6354C64.7675 44.6256 64.7542 43.9713 64.3273 43.9811C63.9004 43.9909 63.9136 44.6452 64.3406 44.6354Z" fill="#46A358"/>
<path d="M39.4822 45.7936C39.9091 45.7838 39.8959 45.1295 39.4689 45.1393C39.042 45.1491 39.0553 45.8034 39.4822 45.7936Z" fill="#46A358"/>
<path d="M51.5891 4.38694C49.0341 11.8366 47.6408 19.6396 47.4886 27.508C47.4125 31.4634 47.6475 35.4222 48.1935 39.3416C48.4451 41.1476 48.7628 42.947 49.1467 44.7301C49.4478 46.1238 49.6034 47.7172 50.6492 48.7805C51.096 49.2352 51.781 48.5253 51.3376 48.0738C50.209 46.9254 50.0932 44.4978 49.802 42.9961C49.4346 41.0985 49.1434 39.1846 48.9282 37.2609C48.5212 33.6227 48.3855 29.9585 48.5145 26.3007C48.776 18.9198 50.1561 11.6207 52.5522 4.62905C52.7573 4.03033 51.791 3.79149 51.5891 4.38694Z" fill="#46A358"/>
<path d="M55.4409 4.52098C56.7779 11.9641 56.811 19.5707 57.0791 27.1054C57.2048 30.6454 57.42 34.1951 57.3471 37.7384C57.271 41.4157 56.5462 44.8739 55.5699 48.4073C55.4012 49.0191 56.3642 49.258 56.533 48.6494C57.4497 45.3418 58.1778 42.0766 58.3168 38.6348C58.4724 34.7906 58.2109 30.9267 58.0752 27.089C57.8039 19.4628 57.7476 11.7776 56.394 4.24289C56.2815 3.62127 55.3283 3.90264 55.4409 4.52098Z" fill="#46A358"/>
<path d="M62.6293 17.3099C63.0827 27.4946 63.4931 37.8037 60.9779 47.7791C60.8223 48.3942 61.7854 48.633 61.941 48.0212C64.476 37.9608 64.0822 27.5601 63.6222 17.2903C63.5924 16.6588 62.5996 16.6752 62.6293 17.3099Z" fill="#46A358"/>
<path d="M59.8227 17.4603C58.4161 19.0863 57.4762 20.9773 57.0625 23.081C56.9401 23.6994 57.9031 23.9448 58.0256 23.3231C58.4062 21.3798 59.2369 19.6458 60.5375 18.1408C60.9512 17.6599 60.2397 16.9793 59.8227 17.4603Z" fill="#46A358"/>
<path d="M69.6052 23.7164C69.582 31.0908 68.5826 38.3965 66.6233 45.5124C66.4545 46.1242 67.4176 46.363 67.5864 45.7545C69.5655 38.5568 70.5749 31.1562 70.5981 23.6968C70.5981 23.0654 69.6052 23.085 69.6052 23.7164Z" fill="#46A358"/>
<path d="M67.7193 21.5209C65.1511 24.4622 63.8902 28.0839 62.9834 31.8104C62.8344 32.4255 63.7975 32.6676 63.9464 32.0525C64.8135 28.5027 65.9851 25.0118 68.4374 22.2015C68.8511 21.7238 68.1363 21.04 67.7193 21.5209Z" fill="#46A358"/>
<path d="M43.7547 10.4166C45.522 14.5324 46.806 18.7986 47.6003 23.199C47.7128 23.8207 48.6627 23.536 48.5535 22.9177C47.7592 18.5173 46.4718 14.251 44.7078 10.1352C44.4596 9.56268 43.5065 9.83423 43.7547 10.4166Z" fill="#46A358"/>
<path d="M41.9147 10.7732C41.3951 17.0189 40.8854 23.3431 41.9378 29.5658C43.0399 36.0568 45.7471 42.3908 47.8288 48.6233C48.0274 49.2221 48.9805 48.944 48.7819 48.342C46.7664 42.2992 44.1618 36.155 42.9969 29.8864C41.8253 23.5753 42.378 17.1007 42.9075 10.7536C42.9605 10.1255 41.9676 10.1484 41.9147 10.7732Z" fill="#46A358"/>
<path d="M35.5969 25.8625C38.9097 28.9117 41.5938 32.4779 43.6059 36.4857C43.8906 37.0517 44.7345 36.5348 44.4532 35.972C42.4046 31.8922 39.6577 28.2574 36.2853 25.1526C35.8187 24.724 35.1303 25.4307 35.5969 25.8625Z" fill="#46A358"/>
<path d="M33.3238 27.1219C35.8887 34.6991 39.3405 41.9361 43.6263 48.7084C43.9639 49.245 44.8144 48.7346 44.4735 48.1948C40.2307 41.4911 36.8153 34.3392 34.2769 26.8405C34.075 26.2451 33.1219 26.5199 33.3238 27.1219Z" fill="#46A358"/>
<path d="M39.0687 46.7614C37.6059 44.1768 35.4613 42.0273 32.7939 40.6597C32.2511 40.3816 31.7315 40.4536 32.7839 40.3489C33.1678 40.3097 33.565 40.2933 33.9489 40.2999C35.1999 40.3129 36.3317 40.5354 37.4073 41.2061C38.6583 41.9848 39.7505 43.1037 40.8691 44.0558C41.3523 44.468 42.0406 43.7613 41.5575 43.3491C40.141 42.1385 38.7377 40.627 37.0003 39.8745C36.0306 39.4525 34.9814 39.3282 33.929 39.3249C33.2605 39.3216 31.8705 39.1973 31.3112 39.76C30.2191 40.8528 32.3107 41.4973 32.9626 41.8801C35.1999 43.1822 36.9605 45.0536 38.2215 47.2849C38.5326 47.828 39.3798 47.3143 39.0687 46.7614Z" fill="#46A358"/>
<path d="M69.2809 38.7923C70.2506 36.6559 72.5043 35.9852 74.6489 35.5402C74.9633 35.4748 75.0891 35.0626 74.9302 34.8139C73.7653 32.9949 71.6439 32.8084 69.6548 32.9883C69.0227 33.0439 69.036 34.0254 69.6747 33.9698C71.2798 33.8259 73.1166 33.816 74.083 35.3276C74.1756 35.0855 74.2716 34.8434 74.3643 34.6013C71.9748 35.0953 69.4827 35.9492 68.4138 38.3146C68.1523 38.8872 69.0194 39.3681 69.2809 38.7923Z" fill="#46A358"/>
<path d="M35.4313 24.9135C34.9945 25.4828 34.5047 26.1927 33.7799 26.4217C33.065 26.6475 32.3005 26.3236 32.3568 25.4697C32.3998 24.8023 32.9789 24.3148 33.5415 24.0367C34.1968 23.7128 35.994 23.559 35.5174 24.8023C35.2923 25.3944 36.2554 25.6267 36.4805 25.0444C36.9405 23.8437 35.8351 22.7934 34.6635 22.7705C33.4324 22.7476 31.9994 23.5557 31.536 24.7106C31.1025 25.7805 31.5559 27.1186 32.7606 27.4229C34.2333 27.7926 35.3486 26.6377 36.1495 25.5973C36.5301 25.0934 35.8186 24.4097 35.4313 24.9135Z" fill="#46A358"/>
<path d="M43.9964 9.68071C43.3775 9.79522 42.4806 10.1944 41.8617 9.8672C41.2429 9.53676 41.3554 8.71557 41.7128 8.24117C42.0868 7.74715 42.6759 7.5672 43.2716 7.73079C43.7548 7.86493 45.2606 9.11471 44.2115 9.54657C43.629 9.78541 43.9037 10.7309 44.4961 10.4888C45.7372 9.97844 45.6942 8.55852 44.8966 7.64573C44.0923 6.72311 42.6527 6.37304 41.5771 7.04374C40.6372 7.63264 40.1143 8.91514 40.624 9.94245C41.3454 11.4016 43.0333 10.852 44.281 10.623C44.9065 10.5052 44.6186 9.56293 43.9964 9.68071Z" fill="#46A358"/>
<path d="M55.7917 3.69346C54.9312 3.91266 53.9284 4.17112 53.0415 3.95846C51.7938 3.66401 51.7474 2.25065 52.6245 1.51779C53.3261 0.932153 54.4017 0.866719 55.2522 1.12191C55.7884 1.28223 56.4172 1.62903 56.5628 2.21138C56.7018 2.75776 56.4337 3.29758 55.8777 3.43172C55.2588 3.58222 55.5401 4.52446 56.1623 4.37397C57.6417 4.01408 57.966 2.19175 57.0559 1.11864C56.03 -0.0886122 53.9714 -0.294729 52.5914 0.372695C51.294 1.00086 50.5031 2.68905 51.3669 3.97809C52.3663 5.47325 54.6201 5.00213 56.073 4.62916C56.6919 4.47539 56.4106 3.53314 55.7917 3.69346Z" fill="#46A358"/>
<path d="M62.8706 13.3419C61.4442 13.09 59.8821 13.4989 59.2302 14.8959C58.7006 16.0279 59.2004 17.4969 60.4315 17.9222C61.6726 18.3508 63.5557 17.8208 64.2441 16.6823C64.9027 15.5863 64.4261 14.1958 63.3869 13.5414C62.8475 13.2012 62.3676 14.0616 62.9037 14.3986C63.5722 14.8174 63.7907 15.7695 63.2446 16.3813C62.7581 16.9276 61.7189 17.1599 61.014 17.0356C60.1072 16.8753 59.7564 15.9363 60.2098 15.1609C60.7062 14.3136 61.7288 14.1369 62.629 14.2939C63.2545 14.4052 63.4994 13.4531 62.8706 13.3419Z" fill="#46A358"/>
<path d="M70.5656 18.766C69.3112 18.6842 67.5738 18.8609 67.2958 20.3789C67.0674 21.6222 68.4971 23.2646 69.5926 23.7062C72.72 24.9658 73.3886 18.6842 70.6913 18.8511C70.0559 18.8903 70.0724 19.8718 70.7112 19.8326C71.5882 19.7769 71.3731 21.8283 71.1745 22.234C70.7079 23.1991 69.8143 22.8458 69.2252 22.2307C68.7718 21.7563 67.9577 20.9155 68.4276 20.235C68.881 19.5806 69.8937 19.705 70.5854 19.7475C71.2241 19.79 71.1977 18.8085 70.5656 18.766Z" fill="#46A358"/>
<path d="M52.6379 6.17618C52.5386 6.50662 52.436 6.83706 52.3367 7.1675C52.2143 7.57319 52.8563 7.73023 52.9788 7.32781C53.0781 6.99737 53.1807 6.66693 53.28 6.33649C53.4024 5.93081 52.7604 5.77376 52.6379 6.17618Z" fill="#46A358"/>
<path d="M54.0508 6.23234C54.0541 6.45154 54.0607 6.66747 54.064 6.88668C54.0739 7.30872 54.7358 7.29564 54.7259 6.87359C54.7226 6.65439 54.716 6.43845 54.7127 6.21925C54.7061 5.7972 54.0441 5.81029 54.0508 6.23234Z" fill="#46A358"/>
<path d="M53.5812 10.1676C54.0081 10.1578 53.9949 9.50348 53.568 9.51329C53.1444 9.51983 53.1576 10.1742 53.5812 10.1676Z" fill="#46A358"/>
<path d="M51.6052 10.5344C51.5755 10.8975 51.5457 11.264 51.5192 11.6271C51.506 11.8038 51.6913 11.951 51.8568 11.9478C52.052 11.9445 52.1679 11.7907 52.1811 11.614C52.2109 11.2509 52.2407 10.8845 52.2671 10.5213C52.2804 10.3446 52.095 10.1974 51.9296 10.2007C51.7343 10.204 51.6185 10.3577 51.6052 10.5344Z" fill="#46A358"/>
<path d="M53.17 11.5946C53.18 11.9938 53.1866 12.3929 53.1965 12.7953C53.2064 13.2174 53.8683 13.2043 53.8584 12.7823C53.8485 12.3831 53.8419 11.984 53.8319 11.5816C53.822 11.1595 53.1601 11.1726 53.17 11.5946Z" fill="#46A358"/>
<path d="M54.3424 9.27811C54.3854 9.60527 54.4285 9.93244 54.4715 10.2564C54.4946 10.433 54.6171 10.5803 54.8091 10.577C54.9712 10.5737 55.1566 10.42 55.1334 10.2433C55.0904 9.91608 55.0473 9.58891 55.0043 9.26502C54.9811 9.08835 54.8587 8.94112 54.6667 8.94439C54.5013 8.94767 54.3159 9.10143 54.3424 9.27811Z" fill="#46A358"/>
<path d="M54.4376 14.1854C54.4409 14.3687 54.4442 14.5486 54.4475 14.7318C54.4574 15.1539 55.1193 15.1408 55.1094 14.7187C55.1061 14.5355 55.1028 14.3556 55.0995 14.1724C55.0896 13.7503 54.4277 13.7634 54.4376 14.1854Z" fill="#46A358"/>
<path d="M53.005 8.86927C52.9719 9.19316 53.0447 9.49743 53.1804 9.79188C53.2532 9.9522 53.4981 9.98491 53.6371 9.89985C53.8059 9.79843 53.8191 9.61194 53.7463 9.44836C53.6603 9.26187 53.647 9.05575 53.6669 8.85291C53.6834 8.67624 53.4915 8.52901 53.3293 8.53228C53.134 8.53883 53.0215 8.6926 53.005 8.86927Z" fill="#46A358"/>
<path d="M50.6951 14.0646C50.6289 14.4311 50.5627 14.7942 50.4965 15.1606C50.4204 15.5729 51.0625 15.7365 51.1386 15.321C51.2048 14.9545 51.271 14.5914 51.3372 14.2249C51.41 13.8127 50.7712 13.6491 50.6951 14.0646Z" fill="#46A358"/>
<path d="M52.5188 16.3224C52.489 16.5776 52.4559 16.8327 52.4261 17.0879C52.4062 17.2646 52.4757 17.438 52.6644 17.4871C52.8199 17.5263 53.045 17.4282 53.0681 17.2515C53.0979 16.9963 53.131 16.7411 53.1608 16.486C53.1807 16.3093 53.1112 16.1359 52.9225 16.0868C52.767 16.0443 52.5419 16.1457 52.5188 16.3224Z" fill="#46A358"/>
<path d="M51.9359 20.9777C51.9888 21.2558 51.9557 21.5273 51.8664 21.7924C51.7307 22.1915 52.3727 22.3518 52.5084 21.9527C52.6375 21.5732 52.6474 21.1838 52.5713 20.7912C52.5382 20.6178 52.3198 20.5229 52.1609 20.572C51.9723 20.6276 51.8995 20.8043 51.9359 20.9777Z" fill="#46A358"/>
<path d="M49.9143 18.3375C49.8845 18.5927 49.8514 18.8478 49.8216 19.103C49.8018 19.2797 49.8713 19.4531 50.0599 19.5022C50.2154 19.5414 50.4405 19.4433 50.4637 19.2666C50.4934 19.0114 50.5265 18.7562 50.5563 18.501C50.5762 18.3244 50.5067 18.151 50.318 18.1019C50.1592 18.0626 49.9341 18.1608 49.9143 18.3375Z" fill="#46A358"/>
<path d="M54.4211 18.8577C54.5006 19.2209 54.5767 19.584 54.6561 19.9439C54.7455 20.3562 55.3809 20.1664 55.2915 19.7574C55.2121 19.3943 55.136 19.0311 55.0566 18.6712C54.9672 18.259 54.3351 18.4455 54.4211 18.8577Z" fill="#46A358"/>
<path d="M54.8555 23.6669C54.8621 24.03 54.872 24.3932 54.8786 24.7564C54.8886 25.1784 55.5505 25.1653 55.5406 24.7433C55.5339 24.3801 55.524 24.017 55.5174 23.6538C55.5108 23.2318 54.8489 23.2448 54.8555 23.6669Z" fill="#46A358"/>
<path d="M54.0744 28.4633C54.1175 28.7184 54.1572 28.9704 54.2002 29.2256C54.23 29.399 54.455 29.4906 54.6106 29.4448C54.7992 29.3891 54.8621 29.2125 54.8323 29.0391C54.7893 28.7839 54.7496 28.532 54.7066 28.2768C54.6768 28.1034 54.4517 28.0118 54.2962 28.0576C54.1075 28.1099 54.0446 28.2866 54.0744 28.4633Z" fill="#46A358"/>
<path d="M51.3731 26.0293C51.3764 26.2485 51.383 26.4644 51.3863 26.6836C51.3962 27.1056 52.0581 27.0926 52.0482 26.6705C52.0449 26.4513 52.0383 26.2354 52.035 26.0162C52.0284 25.5941 51.3665 25.6072 51.3731 26.0293Z" fill="#46A358"/>
<path d="M49.5503 23.2287C49.5735 23.5002 49.547 23.7554 49.4676 24.0172C49.3451 24.4228 49.9872 24.5799 50.1096 24.1775C50.2056 23.8667 50.2387 23.5395 50.2122 23.2156C50.1758 22.8001 49.5139 22.8099 49.5503 23.2287Z" fill="#46A358"/>
<path d="M50.3804 30.7598C50.3473 31.015 50.3175 31.2701 50.2844 31.5253C50.2613 31.702 50.3341 31.8754 50.5227 31.9245C50.6783 31.9637 50.9033 31.8656 50.9265 31.6889C50.9596 31.4337 50.9894 31.1785 51.0225 30.9233C51.0456 30.7467 50.9728 30.5733 50.7842 30.5242C50.6253 30.4849 50.4036 30.5831 50.3804 30.7598Z" fill="#46A358"/>
<path d="M53.756 34.4669C53.799 34.6828 53.8388 34.902 53.8818 35.1179C53.9149 35.2913 54.1333 35.3862 54.2922 35.3371C54.4775 35.2815 54.547 35.1048 54.5139 34.9314C54.4709 34.7155 54.4312 34.4963 54.3881 34.2804C54.355 34.107 54.1366 34.0121 53.9778 34.0612C53.7924 34.1168 53.7229 34.2935 53.756 34.4669Z" fill="#46A358"/>
<path d="M51.9662 38.2126C52.0456 38.5758 52.1283 38.9357 52.2078 39.2988C52.3004 39.7111 52.9326 39.5213 52.8432 39.1124C52.7638 38.7492 52.681 38.3893 52.6016 38.0262C52.5089 37.6139 51.8735 37.8004 51.9662 38.2126Z" fill="#46A358"/>
<path d="M55.6591 40.5818C55.5896 40.837 55.5234 41.0922 55.4539 41.3507C55.3447 41.7596 55.9867 41.9199 56.096 41.511C56.1655 41.2558 56.2316 41.0006 56.3011 40.7421C56.4104 40.3332 55.7683 40.1729 55.6591 40.5818Z" fill="#46A358"/>
<path d="M55.166 12.1869C55.209 12.4421 55.252 12.6941 55.2951 12.9492C55.3248 13.1226 55.5499 13.2143 55.7054 13.1684C55.8941 13.1128 55.957 12.9362 55.9272 12.7628C55.8841 12.5076 55.8411 12.2556 55.7981 12.0005C55.7683 11.8271 55.5433 11.7355 55.3877 11.7813C55.2024 11.8369 55.1362 12.0135 55.166 12.1869Z" fill="#46A358"/>
<path d="M55.2457 16.679C55.292 17.0061 55.3384 17.33 55.3847 17.6572C55.4112 17.8306 55.527 17.9811 55.7223 17.9778C55.8844 17.9746 56.0698 17.8208 56.0466 17.6441C56.0003 17.317 55.9539 16.9931 55.9076 16.6659C55.8811 16.4925 55.7653 16.342 55.57 16.3453C55.4079 16.3485 55.2192 16.5056 55.2457 16.679Z" fill="#46A358"/>
<path d="M60.2098 20.3107C60.1204 20.8243 60.0278 21.3347 59.9384 21.8484C59.8656 22.2606 60.5076 22.4242 60.5804 22.0087C60.6698 21.495 60.7625 20.9846 60.8518 20.471C60.9246 20.0588 60.2826 19.8952 60.2098 20.3107Z" fill="#46A358"/>
<path d="M61.4971 19.3876C61.5037 19.6428 61.507 19.898 61.5136 20.1499C61.5236 20.5719 62.1855 20.5589 62.1755 20.1368C62.1689 19.8816 62.1656 19.6264 62.159 19.3745C62.1491 18.9525 61.4905 18.9655 61.4971 19.3876Z" fill="#46A358"/>
<path d="M61.1368 22.8854C61.074 23.4318 61.0144 23.9781 60.9515 24.5245C60.9052 24.9433 61.5671 24.9237 61.6134 24.5114C61.6763 23.9651 61.7359 23.4187 61.7987 22.8723C61.8451 22.4568 61.1832 22.4732 61.1368 22.8854Z" fill="#46A358"/>
<path d="M59.4224 23.8434C59.2801 24.1378 59.1411 24.4323 58.9988 24.7235C58.8168 25.103 59.3959 25.4236 59.578 25.0408C59.7203 24.7464 59.8593 24.4519 60.0016 24.1608C60.1836 23.7812 59.6044 23.4606 59.4224 23.8434Z" fill="#46A358"/>
<path d="M58.4264 22.0934C58.3403 22.3159 58.2576 22.5351 58.1715 22.7576C58.1086 22.9244 58.2509 23.1142 58.4098 23.1567C58.5984 23.2058 58.7474 23.0847 58.8136 22.9212C58.8996 22.6987 58.9823 22.4795 59.0684 22.257C59.1313 22.0901 58.989 21.9004 58.8301 21.8579C58.6415 21.8088 58.4925 21.9266 58.4264 22.0934Z" fill="#46A358"/>
<path d="M60.316 26.3923C60.3027 26.6835 60.2928 26.9747 60.2796 27.2658C60.263 27.6879 60.9249 27.6715 60.9415 27.2528C60.9547 26.9616 60.9646 26.6704 60.9779 26.3792C60.9944 25.9572 60.3325 25.9735 60.316 26.3923Z" fill="#46A358"/>
<path d="M61.6729 28.1096C61.6596 28.3812 61.6464 28.656 61.6332 28.9276C61.6232 29.1042 61.802 29.2514 61.9707 29.2482C62.1594 29.2449 62.2851 29.0911 62.2951 28.9145C62.3083 28.6429 62.3216 28.3681 62.3348 28.0965C62.3447 27.9199 62.166 27.7726 61.9972 27.7759C61.8086 27.7792 61.6828 27.933 61.6729 28.1096Z" fill="#46A358"/>
<path d="M61.1495 31.0347C61.1197 31.2703 61.0866 31.5091 61.0568 31.7447C61.0337 31.9181 61.1098 32.0947 61.2951 32.1438C61.454 32.1831 61.6757 32.0849 61.6989 31.9082C61.7286 31.6727 61.7617 31.4339 61.7915 31.1983C61.8147 31.0249 61.7386 30.8482 61.5532 30.7992C61.3944 30.7566 61.1726 30.858 61.1495 31.0347Z" fill="#46A358"/>
<path d="M58.6813 29.0128C58.6482 29.2124 58.6151 29.4152 58.582 29.6148C58.5522 29.7882 58.6383 29.9648 58.8203 30.0139C58.9824 30.0532 59.1943 29.9518 59.224 29.7784C59.2571 29.5788 59.2902 29.3759 59.3233 29.1764C59.3531 29.003 59.2671 28.8263 59.085 28.7772C58.9229 28.7347 58.7111 28.8361 58.6813 29.0128Z" fill="#46A358"/>
<path d="M59.1573 34.2147C59.1606 34.3587 59.1639 34.5059 59.1672 34.6499C59.1771 35.0719 59.839 35.0588 59.8291 34.6368C59.8258 34.4928 59.8225 34.3456 59.8192 34.2017C59.8092 33.7796 59.1473 33.7927 59.1573 34.2147Z" fill="#46A358"/>
<path d="M61.295 36.1357C61.2983 36.2796 61.3016 36.4268 61.3049 36.5708C61.3149 36.9928 61.9768 36.9797 61.9668 36.5577C61.9635 36.4137 61.9602 36.2665 61.9569 36.1226C61.947 35.7005 61.2851 35.7136 61.295 36.1357Z" fill="#46A358"/>
<path d="M59.3889 40.101C59.4154 40.3562 59.3889 40.5918 59.3062 40.8339C59.2499 41.0007 59.3823 41.1905 59.5445 41.233C59.7298 41.2788 59.8886 41.1643 59.9481 40.9974C60.0474 40.7063 60.0838 40.3955 60.0507 40.0912C60.0309 39.9145 59.9019 39.7673 59.7133 39.7706C59.5445 39.7706 59.3691 39.9243 59.3889 40.101Z" fill="#46A358"/>
<path d="M60.2066 18.6517C60.1205 18.8185 60.0312 18.9854 59.9451 19.149C59.7499 19.5219 60.3257 19.8425 60.5243 19.4663C60.6103 19.2994 60.6997 19.1326 60.7857 18.969C60.981 18.596 60.4051 18.2754 60.2066 18.6517Z" fill="#46A358"/>
<path d="M43.0404 12.4321C43.1 12.7756 43.1629 13.1224 43.2224 13.466C43.2522 13.6394 43.4773 13.731 43.6328 13.6852C43.8215 13.6295 43.8877 13.4529 43.8546 13.2795C43.795 12.9359 43.7321 12.5891 43.6725 12.2456C43.6427 12.0722 43.4177 11.9806 43.2622 12.0264C43.0735 12.082 43.0073 12.2587 43.0404 12.4321Z" fill="#46A358"/>
<path d="M44.0265 14.595C44.1788 14.9549 44.3343 15.318 44.4866 15.6779C44.5561 15.8415 44.7149 15.9527 44.897 15.8971C45.0525 15.8513 45.1882 15.655 45.1187 15.4914C44.9665 15.1315 44.8109 14.7684 44.6587 14.4085C44.5892 14.2449 44.4303 14.1337 44.2483 14.1893C44.0927 14.2351 43.957 14.4314 44.0265 14.595Z" fill="#46A358"/>
<path d="M43.1229 15.8019C43.0467 16.3058 43.0534 16.7867 43.1427 17.284C43.2155 17.6962 43.8476 17.5098 43.7781 17.0975C43.7119 16.7246 43.7119 16.3385 43.7682 15.9622C43.8245 15.55 43.1824 15.3864 43.1229 15.8019Z" fill="#46A358"/>
<path d="M44.38 17.6926C44.4925 18.0001 44.6017 18.3109 44.7142 18.6185C44.8565 19.0144 45.492 18.8311 45.3497 18.432C45.2371 18.1245 45.1279 17.8136 45.0154 17.5061C44.8731 17.1102 44.2377 17.2935 44.38 17.6926Z" fill="#46A358"/>
<path d="M42.8418 19.0014C42.8485 19.3645 42.8584 19.7277 42.865 20.0908C42.8749 20.5129 43.5368 20.4998 43.5269 20.0778C43.5203 19.7146 43.5104 19.3514 43.5037 18.9883C43.4971 18.5662 42.8352 18.5793 42.8418 19.0014Z" fill="#46A358"/>
<path d="M44.0821 20.2319C44.0887 20.5591 44.0954 20.8862 44.102 21.2134C44.1119 21.6354 44.7738 21.6224 44.7639 21.2003C44.7573 20.8731 44.7506 20.546 44.744 20.2188C44.7341 19.7968 44.0722 19.8098 44.0821 20.2319Z" fill="#46A358"/>
<path d="M45.9328 20.8797C46.0652 21.2592 46.2009 21.6387 46.3333 22.0182C46.4723 22.4141 47.1077 22.2309 46.9687 21.8317C46.8363 21.4522 46.7006 21.0727 46.5683 20.6932C46.4293 20.2973 45.7938 20.4805 45.9328 20.8797Z" fill="#46A358"/>
<path d="M46.6573 24.1378C46.697 24.3374 46.7401 24.537 46.7798 24.7365C46.8162 24.9099 47.0313 25.0048 47.1901 24.9557C47.3755 24.9001 47.4483 24.7234 47.4119 24.55C47.3722 24.3505 47.3291 24.1509 47.2894 23.9513C47.253 23.7779 47.0379 23.683 46.8791 23.7321C46.697 23.7845 46.6209 23.9644 46.6573 24.1378Z" fill="#46A358"/>
<path d="M44.8409 24.1741C44.9501 24.4816 45.0295 24.7957 45.0659 25.1196C45.0858 25.2963 45.2149 25.4435 45.4035 25.4402C45.569 25.437 45.7477 25.2832 45.7278 25.1065C45.6848 24.7237 45.6054 24.3508 45.4763 23.9876C45.334 23.5917 44.6986 23.775 44.8409 24.1741Z" fill="#46A358"/>
<path d="M43.1426 22.8691C43.1492 23.1242 43.1525 23.3794 43.1592 23.6314C43.1691 24.0534 43.831 24.0403 43.8211 23.6183C43.8144 23.3631 43.8111 23.1079 43.8045 22.856C43.7946 22.4339 43.136 22.447 43.1426 22.8691Z" fill="#46A358"/>
<path d="M43.9404 26.7782C43.9669 27.1054 44.0298 27.426 44.139 27.7335C44.2813 28.1294 44.9167 27.9462 44.7744 27.547C44.6817 27.2919 44.6222 27.0334 44.6023 26.7651C44.5725 26.3463 43.9106 26.3594 43.9404 26.7782Z" fill="#46A358"/>
<path d="M45.3898 29.5625C45.4493 29.7621 45.5089 29.9617 45.5685 30.158C45.6876 30.5604 46.3231 30.3772 46.2039 29.9715C46.1443 29.7719 46.0848 29.5756 46.0252 29.376C45.9061 28.9736 45.2706 29.1568 45.3898 29.5625Z" fill="#46A358"/>
<path d="M46.1676 27.0371C46.2073 27.181 46.247 27.325 46.2867 27.4722C46.3993 27.8779 47.0347 27.6914 46.9222 27.2857C46.8825 27.1418 46.8427 26.9978 46.803 26.8506C46.6905 26.4449 46.0551 26.6314 46.1676 27.0371Z" fill="#46A358"/>
<path d="M44.2914 32.4774C44.3741 32.8013 44.4536 33.1285 44.5363 33.4524C44.6389 33.8613 45.2743 33.6748 45.1717 33.2659C45.089 32.942 45.0096 32.6148 44.9268 32.2909C44.8242 31.8819 44.1888 32.0684 44.2914 32.4774Z" fill="#46A358"/>
<path d="M45.9357 37.2415C45.9953 37.3854 46.0516 37.5294 46.1111 37.6733C46.1773 37.8369 46.3395 37.9481 46.5215 37.8925C46.6804 37.8467 46.8095 37.6504 46.7433 37.4868C46.6837 37.3429 46.6274 37.1989 46.5679 37.055C46.5017 36.8914 46.3395 36.7802 46.1575 36.8358C45.9986 36.8816 45.8696 37.0779 45.9357 37.2415Z" fill="#46A358"/>
<path d="M67.4811 23.6831C67.3057 24.0331 67.127 24.3799 66.9516 24.73C66.7596 25.1063 67.3388 25.4269 67.5307 25.0474C67.7061 24.6973 67.8848 24.3505 68.0603 24.0004C68.2522 23.6242 67.673 23.3068 67.4811 23.6831Z" fill="#46A358"/>
<path d="M68.4079 24.5047C68.3251 24.8352 68.2391 25.1623 68.1563 25.4928C68.0504 25.9017 68.6925 26.0621 68.7984 25.6531C68.8811 25.3227 68.9672 24.9955 69.0499 24.6651C69.1525 24.2594 68.5104 24.0991 68.4079 24.5047Z" fill="#46A358"/>
<path d="M67.5931 27.6322C67.5104 27.907 67.4276 28.1819 67.3416 28.4568C67.2191 28.8625 67.8612 29.0194 67.9836 28.617C68.0664 28.3422 68.1491 28.0674 68.2352 27.7926C68.3543 27.3902 67.7123 27.2298 67.5931 27.6322Z" fill="#46A358"/>
<path d="M67.0373 26.3076C66.9678 26.4352 66.895 26.566 66.8255 26.6936C66.6203 27.0633 67.1996 27.384 67.4048 27.011C67.4743 26.8834 67.547 26.7525 67.6165 26.6249C67.8217 26.2585 67.2425 25.9379 67.0373 26.3076Z" fill="#46A358"/>
<path d="M68.6727 26.4643C68.6429 26.7195 68.6131 26.9747 68.5834 27.2299C68.5635 27.4066 68.633 27.58 68.8216 27.629C68.9772 27.6683 69.2022 27.5701 69.2254 27.3935C69.2552 27.1383 69.285 26.8831 69.3148 26.6279C69.3346 26.4512 69.2651 26.2778 69.0765 26.2288C68.9176 26.1895 68.6926 26.2876 68.6727 26.4643Z" fill="#46A358"/>
<path d="M65.5552 28.162C65.489 28.3714 65.3897 28.5611 65.2705 28.7443C65.0389 29.0977 65.618 29.415 65.8497 29.0617C66.0019 28.8327 66.1145 28.584 66.1972 28.3223C66.2502 28.1554 66.1244 27.9657 65.9589 27.9231C65.7736 27.8806 65.6081 27.9918 65.5552 28.162Z" fill="#46A358"/>
<path d="M65.5351 30.9756C65.3928 31.2079 65.3233 31.4729 65.3365 31.7445C65.3564 32.1633 66.0183 32.1534 65.9984 31.7314C65.9918 31.5678 66.0249 31.4337 66.1143 31.2963C66.336 30.9331 65.7568 30.6157 65.5351 30.9756Z" fill="#46A358"/>
<path d="M67.2587 30.2563C67.1926 30.4755 67.1264 30.698 67.0635 30.9172C66.9443 31.3229 67.5864 31.4799 67.7055 31.0775C67.7717 30.8583 67.8379 30.6358 67.9008 30.4166C68.0199 30.0109 67.3779 29.8539 67.2587 30.2563Z" fill="#46A358"/>
<path d="M66.7132 33.4824C66.6437 33.7212 66.5775 33.9568 66.508 34.1956C66.3922 34.6013 67.0343 34.7616 67.1501 34.3559C67.2196 34.1171 67.2858 33.8815 67.3553 33.6427C67.4712 33.2403 66.829 33.0799 66.7132 33.4824Z" fill="#46A358"/>
<path d="M68.8114 28.8362C68.7949 28.9835 68.7816 29.1274 68.7651 29.2747C68.7452 29.4513 68.9405 29.5985 69.1026 29.5953C69.3012 29.592 69.4071 29.4382 69.427 29.2616C69.4435 29.1143 69.4568 28.9704 69.4733 28.8232C69.4932 28.6465 69.2979 28.4993 69.1357 28.5025C68.9372 28.5091 68.8313 28.6596 68.8114 28.8362Z" fill="#46A358"/>
<path d="M64.655 35.3799C64.6219 35.4911 64.5855 35.5991 64.5524 35.7103C64.4266 36.1127 65.0686 36.2731 65.1944 35.8706C65.2275 35.7594 65.2639 35.6514 65.297 35.5402C65.4228 35.1378 64.7807 34.9807 64.655 35.3799Z" fill="#46A358"/>
<path d="M64.1215 38.72C64.052 38.9032 63.9792 39.0864 63.9097 39.2696C63.8468 39.4332 63.9892 39.6262 64.148 39.6688C64.34 39.7178 64.4856 39.5968 64.5518 39.4332C64.6213 39.25 64.6941 39.0668 64.7636 38.8836C64.8264 38.72 64.6841 38.527 64.5253 38.4844C64.3333 38.4353 64.1877 38.5531 64.1215 38.72Z" fill="#46A358"/>
<path d="M66.7267 37.3886C66.73 37.4966 66.73 37.6078 66.7333 37.7158C66.7433 38.1378 67.4052 38.1247 67.3952 37.7027C67.3919 37.5947 67.3919 37.4835 67.3886 37.3755C67.3787 36.9535 66.7168 36.9666 66.7267 37.3886Z" fill="#46A358"/>
<path d="M65.4921 41.7235C65.4755 41.8707 65.4623 42.0146 65.4457 42.1619C65.4259 42.3385 65.6211 42.4858 65.7833 42.4825C65.9819 42.4792 66.0878 42.3255 66.1076 42.1488C66.1242 42.0016 66.1374 41.8576 66.154 41.7104C66.1738 41.5337 65.9786 41.3865 65.8164 41.3897C65.6211 41.393 65.5119 41.5468 65.4921 41.7235Z" fill="#46A358"/>
<path d="M35.2594 28.0801C35.3157 28.2601 35.3753 28.4433 35.4315 28.6232C35.5573 29.0256 36.1927 28.8392 36.067 28.4368C36.0107 28.2568 35.9511 28.0736 35.8949 27.8937C35.7658 27.4912 35.1304 27.6777 35.2594 28.0801Z" fill="#46A358"/>
<path d="M35.9415 27.3379C36.1632 27.6095 36.3883 27.881 36.61 28.1493C36.7226 28.2867 36.9641 28.2572 37.0767 28.1395C37.2124 27.9988 37.1793 27.8156 37.0667 27.6782C36.845 27.4066 36.62 27.1351 36.3982 26.8668C36.2857 26.7294 36.0441 26.7588 35.9316 26.8766C35.7959 27.014 35.829 27.2005 35.9415 27.3379Z" fill="#46A358"/>
<path d="M37.212 29.6415C37.4039 29.9098 37.5959 30.1781 37.7845 30.4431C38.0294 30.7866 38.5953 30.4464 38.3504 30.1029C38.1585 29.8346 37.9665 29.5663 37.7779 29.3013C37.5297 28.9578 36.9637 29.2947 37.212 29.6415Z" fill="#46A358"/>
<path d="M36.3981 30.4228C36.5504 30.6747 36.7026 30.9266 36.8548 31.1786C37.0733 31.5384 37.6392 31.1982 37.4208 30.8383C37.2685 30.5864 37.1163 30.3345 36.964 30.0825C36.7423 29.7194 36.1797 30.0596 36.3981 30.4228Z" fill="#46A358"/>
<path d="M37.8805 33.1222C38.0724 33.4624 38.2677 33.8027 38.4596 34.1429C38.6681 34.5094 39.2341 34.1691 39.0256 33.8027C38.8336 33.4624 38.6384 33.1222 38.4464 32.7819C38.2346 32.4155 37.672 32.7558 37.8805 33.1222Z" fill="#46A358"/>
<path d="M38.4666 32.131C38.5989 32.3273 38.7313 32.5269 38.8637 32.7232C39.0987 33.0732 39.6646 32.733 39.4296 32.3829C39.2973 32.1866 39.1649 31.987 39.0325 31.7907C38.7942 31.4407 38.2283 31.7777 38.4666 32.131Z" fill="#46A358"/>
<path d="M38.7742 30.7565C38.8834 30.9888 39.0687 31.1688 39.2904 31.2996C39.6611 31.5123 39.9821 30.9397 39.6115 30.7271C39.4791 30.6518 39.3997 30.5504 39.3368 30.4163C39.2607 30.256 39.0224 30.2232 38.8801 30.3083C38.7179 30.4097 38.698 30.5962 38.7742 30.7565Z" fill="#46A358"/>
<path d="M36.2922 32.4743C36.3352 32.6542 36.375 32.8342 36.418 33.0174C36.4577 33.1908 36.6662 33.2857 36.8284 33.2366C37.0104 33.1842 37.0898 33.001 37.0501 32.8309C37.0071 32.651 36.9674 32.471 36.9243 32.2878C36.8846 32.1144 36.6761 32.0195 36.514 32.0686C36.3319 32.1209 36.2525 32.3042 36.2922 32.4743Z" fill="#46A358"/>
<path d="M38.38 35.8931C38.5323 36.2006 38.6845 36.5082 38.8334 36.8124C38.9129 36.9728 39.1478 37.0055 39.2901 36.9204C39.4556 36.8223 39.4788 36.6292 39.3994 36.4689C39.2471 36.1614 39.0949 35.8538 38.9459 35.5496C38.8665 35.3893 38.6315 35.3565 38.4892 35.4416C38.3238 35.543 38.3006 35.7361 38.38 35.8931Z" fill="#46A358"/>
<path d="M40.8523 34.9677C40.9682 35.1836 41.0807 35.3995 41.1965 35.6154C41.3951 35.9884 41.9577 35.6449 41.7624 35.2752C41.6466 35.0593 41.5341 34.8433 41.4183 34.6274C41.2164 34.2544 40.6538 34.5947 40.8523 34.9677Z" fill="#46A358"/>
<path d="M41.6073 39.6463C41.7033 39.8263 41.7992 40.0062 41.8985 40.1829C42.1004 40.5558 42.663 40.2123 42.4645 39.8426C42.3685 39.6627 42.2725 39.4827 42.1732 39.3061C41.9713 38.9331 41.4054 39.2734 41.6073 39.6463Z" fill="#46A358"/>
<path d="M42.7818 37.9875C42.8943 38.1675 43.0101 38.3474 43.1227 38.5273C43.3477 38.884 43.9136 38.5437 43.6886 38.1871C43.5761 38.0071 43.4602 37.8272 43.3477 37.6473C43.1193 37.2907 42.5534 37.6309 42.7818 37.9875Z" fill="#46A358"/>
<path d="M44.0994 43.0318C44.192 43.1954 44.288 43.3557 44.3807 43.5193C44.5925 43.8857 45.1551 43.5422 44.9466 43.179C44.8539 43.0154 44.758 42.8551 44.6653 42.6915C44.4535 42.3251 43.8876 42.6654 44.0994 43.0318Z" fill="#46A358"/>
<path d="M33.4263 41.0104C33.648 41.1151 33.8731 41.2165 34.0948 41.3212C34.4787 41.5012 34.803 40.9286 34.4158 40.7487C34.1941 40.644 33.969 40.5426 33.7473 40.4379C33.3667 40.2612 33.0424 40.8305 33.4263 41.0104Z" fill="#46A358"/>
<path d="M35.5341 41.9622C35.779 42.1356 36.0239 42.3122 36.2655 42.4856C36.4112 42.5903 36.6362 42.502 36.7156 42.358C36.8116 42.1879 36.7322 42.0178 36.5866 41.9131C36.3417 41.7397 36.0968 41.563 35.8552 41.3896C35.7095 41.2849 35.4845 41.3733 35.4051 41.5172C35.3124 41.6873 35.3918 41.8575 35.5341 41.9622Z" fill="#46A358"/>
<path d="M35.21 40.9611C35.3788 40.9971 35.5343 41.0528 35.6866 41.1378C36.0605 41.3407 36.3816 40.7681 36.0076 40.5653C35.809 40.4573 35.5939 40.3755 35.3722 40.3264C34.9585 40.2348 34.793 40.8695 35.21 40.9611Z" fill="#46A358"/>
<path d="M37.1491 42.3582C37.298 42.4629 37.4469 42.5708 37.5959 42.6755C37.7415 42.777 37.9665 42.6919 38.046 42.5479C38.1419 42.3778 38.0625 42.2044 37.9169 42.103C37.768 41.9983 37.619 41.8903 37.4701 41.7856C37.3245 41.6842 37.0994 41.7693 37.02 41.9132C36.9273 42.0834 37.0035 42.2535 37.1491 42.3582Z" fill="#46A358"/>
<path d="M37.1029 43.3364C37.1791 43.4444 37.2552 43.5523 37.3313 43.6603C37.5729 44.0038 38.1388 43.6668 37.8972 43.32C37.8211 43.2121 37.745 43.1041 37.6689 42.9961C37.4273 42.6493 36.858 42.9896 37.1029 43.3364Z" fill="#46A358"/>
<path d="M38.6018 43.8631C38.7507 43.9874 38.8996 44.1118 39.0519 44.2361C39.1875 44.3506 39.3894 44.3604 39.5185 44.2263C39.6376 44.1052 39.6476 43.8762 39.5086 43.765C39.3596 43.6406 39.2107 43.5163 39.0585 43.392C38.9228 43.2775 38.7209 43.2677 38.5918 43.4018C38.4727 43.5196 38.4628 43.7486 38.6018 43.8631Z" fill="#46A358"/>
<path d="M72.7629 34.2249C72.4088 34.1595 72.0579 34.166 71.7071 34.2544C71.2934 34.3591 71.4821 34.9872 71.8958 34.8825C72.1274 34.8236 72.3624 34.8138 72.5974 34.8596C73.0177 34.9382 73.1799 34.3035 72.7629 34.2249Z" fill="#46A358"/>
<path d="M70.4796 34.9019C70.3538 34.9968 70.2248 35.0884 70.099 35.1833C69.9567 35.288 69.8905 35.4712 69.9898 35.6348C70.0758 35.7754 70.3009 35.8507 70.4465 35.7427C70.5723 35.6478 70.7013 35.5562 70.8271 35.4614C70.9694 35.3567 71.0356 35.1735 70.9363 35.0099C70.8503 34.8692 70.6252 34.7972 70.4796 34.9019Z" fill="#46A358"/>
<path d="M70.5847 34.5817C71.0116 34.5719 70.9984 33.9175 70.5715 33.9274C70.1445 33.9372 70.1578 34.5915 70.5847 34.5817Z" fill="#46A358"/>
</g>
<mask id="mask1_101_368" style="mask-type:luminance" maskUnits="userSpaceOnUse" x="7" y="45" width="83" height="40">
<path d="M90 45H7V85H90V45Z" fill="white"/>
</mask>
<g mask="url(#mask1_101_368)">
<path d="M37.3854 47.6166C35.0441 53.6311 33.3966 59.9165 32.8563 66.371C32.3961 71.888 32.5362 77.8383 35.5577 82.6513C35.9046 83.203 36.7584 82.675 36.4115 82.1199C33.3799 77.2933 33.3866 71.2382 33.9135 65.7245C34.5005 59.5814 36.128 53.5939 38.3559 47.867C38.5893 47.2612 37.6188 47.0175 37.3854 47.6166Z" fill="#727272"/>
<path d="M67.7885 46.6855C73.1146 50.7471 73.1213 58.1933 73.6949 64.3061C73.9851 67.3895 74.3853 70.4831 74.5254 73.58C74.6554 76.4096 74.422 79.4152 72.2142 81.4189C71.7339 81.8556 72.4576 82.5562 72.9345 82.1229C74.8789 80.3595 75.4792 77.8346 75.5459 75.2724C75.6426 71.6237 75.0323 67.9141 74.6921 64.2891C74.0951 57.9192 74.0218 50.1818 68.4789 45.9544C67.9719 45.5652 67.2749 46.2929 67.7885 46.6855Z" fill="#727272"/>
<path d="M35.7584 82.8544C38.5833 83.8867 41.4714 84.1439 44.443 84.3978C47.7314 84.6787 51.0498 85.1018 54.3548 84.9833C57.7099 84.8649 61.075 84.3808 64.4101 84.0153C67.3283 83.6938 70.2231 83.2876 72.9445 82.1097C73.5282 81.8559 73.2513 80.8777 72.6577 81.135C69.8362 82.3568 66.8413 82.7359 63.8164 83.0608C60.6681 83.3993 57.4998 83.8562 54.3348 83.9679C51.2332 84.0796 48.1249 83.6971 45.0366 83.4365C41.9583 83.1725 38.9368 82.9424 36.0052 81.8728C35.3983 81.646 35.1581 82.6344 35.7584 82.8544Z" fill="#727272"/>
<path d="M37.6263 48.1849C39.9542 49.1495 42.3321 50.0025 44.8434 50.3037C47.4548 50.6151 50.1161 50.1683 52.7442 50.236C54.2016 50.2732 55.5123 50.4729 56.9831 50.2597C58.2504 50.0735 59.5177 49.8163 60.7484 49.4609C63.2997 48.723 65.771 47.6941 68.2756 46.8073C68.8793 46.5941 68.5991 45.6193 67.9888 45.8325C63.0862 47.5689 58.4905 49.5963 53.1978 49.2477C50.9966 49.1021 48.8055 49.4304 46.611 49.4101C43.6561 49.3797 40.8146 48.4184 38.1065 47.2981C37.5229 47.0544 37.0293 47.9378 37.6263 48.1849Z" fill="#727272"/>
<path d="M7.66384 51.2413C13.2668 52.1348 18.4795 54.8257 22.3849 59.0193C26.1635 63.0775 28.288 68.4252 32.4101 72.1924C32.887 72.629 33.5841 71.8979 33.1038 71.4613C28.7349 67.4674 26.5504 61.6898 22.3482 57.5368C18.4128 53.6478 13.3235 51.1194 7.91063 50.2564C7.27697 50.1548 7.02684 51.1398 7.66384 51.2413Z" fill="#727272"/>
<path d="M8.5371 49.4236C13.6231 48.2458 19.0292 48.9464 23.5983 51.5424C27.2435 53.6138 30.2351 56.8868 34.5873 57.3336C35.2277 57.3979 35.201 56.3825 34.5673 56.3182C29.6848 55.8173 26.1629 51.3529 21.7606 49.5184C17.4684 47.7313 12.7626 47.4064 8.25362 48.4488C7.62329 48.5944 7.9101 49.5692 8.5371 49.4236Z" fill="#727272"/>
<path d="M7.7236 48.7433C7.34007 49.2781 7.09327 49.9042 7.00656 50.5575C6.96987 50.8316 7.0866 51.099 7.37008 51.1735C7.60687 51.2378 7.94038 51.0787 7.97706 50.8045C8.05377 50.2224 8.25721 49.7113 8.59739 49.2341C8.75747 49.0107 8.6174 48.6688 8.40395 48.5436C8.14715 48.3981 7.88035 48.5233 7.7236 48.7433Z" fill="#727272"/>
<path d="M71.8108 49.6708C73.8786 45.6532 80.4486 45.1354 84.1572 46.9766C88.176 48.9736 90.0303 53.8103 88.3828 58.0411C86.9487 61.727 83.2634 63.531 80.2319 65.6566C78.9545 66.5535 77.5338 67.5622 76.65 68.8856C75.7262 70.2699 75.8462 72.0299 74.9324 73.4109C74.5722 73.9558 75.4494 74.4432 75.8062 73.905C76.3832 73.0352 76.5499 72.1078 76.8067 71.1127C77.1703 69.7216 77.8973 68.828 78.9412 67.9176C80.7388 66.3505 82.8466 65.2166 84.7609 63.812C88.1493 61.3242 90.5272 57.7906 89.8969 53.3635C89.3199 49.3324 86.1249 45.9985 82.1795 45.264C78.2041 44.5227 72.9647 45.2369 70.9337 49.18C70.6369 49.7554 71.5106 50.2496 71.8108 49.6708Z" fill="#727272"/>
<path d="M72.8242 52.2261C74.2082 49.4236 77.3599 48.6993 80.2214 48.9227C82.129 49.0716 83.3063 49.8332 84.3035 51.4951C85.4074 53.3295 85.354 54.8831 84.7304 56.8394C83.7499 59.906 81.9823 61.3275 79.2642 62.766C77.4833 63.7069 74.7652 64.939 74.0548 67.0205C73.8447 67.6399 74.8152 67.8836 75.0253 67.271C75.6723 65.3756 78.8473 64.1436 80.4815 63.2669C81.8989 62.5088 83.2263 61.6728 84.1834 60.3358C85.6975 58.2238 86.9415 54.7748 85.8443 52.2735C84.5036 49.2138 82.4525 47.8565 79.1775 47.8802C76.2626 47.9005 73.3244 48.9566 71.9537 51.732C71.6636 52.3141 72.5374 52.8083 72.8242 52.2261Z" fill="#727272"/>
<path d="M54.3076 59.5711C51.3661 60.0145 48.8815 62.2348 48.5846 65.3385C48.3012 68.2967 50.2689 72.1485 53.6106 71.9217C56.6589 71.7152 59.3669 68.7164 59.6471 65.7176C59.9572 62.4176 57.5193 59.5406 54.2076 59.6861C53.5639 59.7132 53.5839 60.7286 54.2276 60.7015C57.1324 60.5729 59.1335 63.2671 58.5899 66.1035C58.1496 68.3983 55.9685 70.7134 53.5906 70.9097C50.6691 71.15 49.1783 67.3964 49.6419 64.9595C50.0854 62.624 52.0565 60.9317 54.3276 60.5898C54.9546 60.4917 54.9446 59.4729 54.3076 59.5711Z" fill="#727272"/>
<path d="M54.8816 60.0145C54.7048 57.8618 58.0365 54.5888 59.7041 57.08C60.221 57.8517 60.7213 59.2225 60.5078 60.1735C60.2777 61.1923 59.2939 61.9539 58.5401 62.58C58.0432 62.993 58.7703 63.6936 59.2605 63.2841C60.4478 62.2991 61.6684 61.1179 61.5551 59.4289C61.4617 58.048 60.7079 56.227 59.5207 55.4689C56.986 53.8476 53.6776 57.5606 53.881 60.0382C53.9344 60.6846 54.9349 60.6677 54.8816 60.0145Z" fill="#727272"/>
<path d="M59.5269 63.5108C60.7809 62.7561 64.0259 62.9557 63.6891 65.1355C63.3689 67.2137 60.7175 67.2983 59.1467 67.3186C58.503 67.3254 58.5231 68.3408 59.1667 68.334C61.3712 68.3069 65.2266 67.6029 64.6763 64.4382C64.2427 61.9539 60.7876 61.568 59.0033 62.6444C58.4497 62.9794 58.97 63.8459 59.5269 63.5108Z" fill="#727272"/>
<path d="M58.5198 68.52C60.2741 69.3053 62.2484 71.6373 60.5809 73.5192C58.6299 75.7192 55.8084 73.5429 55.088 71.4207C54.8779 70.8047 53.9174 71.089 54.1275 71.7118C55.0614 74.4534 58.4264 76.8226 61.0211 74.4974C63.5424 72.2398 61.5381 68.7671 59.0067 67.6299C58.4231 67.3693 57.9329 68.256 58.5198 68.52Z" fill="#727272"/>
<path d="M53.6472 71.6748C53.7372 73.3807 53.267 75.9192 51.0058 75.6145C49.9786 75.4758 49.1882 74.5382 49.2349 73.4754C49.2749 72.521 49.9386 71.4074 50.3021 70.5342C50.5489 69.9385 49.6784 69.4375 49.4283 70.04C48.898 71.3194 47.9776 72.812 48.3177 74.2573C48.5945 75.4284 49.505 76.3592 50.6723 76.5927C53.6505 77.1918 54.7744 74.0745 54.6477 71.6511C54.6144 71.0012 53.6138 71.0182 53.6472 71.6748Z" fill="#727272"/>
<path d="M50.1657 69.2715C48.3014 70.0534 45.4232 69.8537 44.7728 67.481C44.4894 66.4385 44.8062 65.2065 45.77 64.6413C46.7072 64.093 47.9178 64.2385 48.9384 64.3637C49.5687 64.4416 49.8222 63.4567 49.1852 63.3788C47.7711 63.2062 46.1669 63.0539 44.9496 63.9745C43.9391 64.7394 43.5289 66.0798 43.7223 67.3152C44.2226 70.5069 47.9011 71.3091 50.4491 70.2429C51.0428 69.9992 50.7626 69.021 50.1657 69.2715Z" fill="#727272"/>
<path d="M49.5452 63.4938C47.861 62.58 46.9806 59.2224 48.458 57.7704C50.399 55.8648 52.7836 58.5658 53.9575 60.0279C54.3644 60.5323 55.0514 59.7978 54.6512 59.2968C53.1171 57.3879 49.7987 54.4669 47.5309 57.2187C45.8633 59.2461 46.8605 63.1892 49.0583 64.384C49.6253 64.692 50.1155 63.8052 49.5452 63.4938Z" fill="#727272"/>
<path d="M51.153 70.9572C50.3626 71.7289 49.849 73.8171 51.063 74.4501C52.5171 75.2116 53.1608 72.6224 53.3542 71.6883C53.4409 71.2618 52.7939 71.0959 52.7072 71.5224C52.6205 71.9455 52.5104 72.3618 52.357 72.768C52.2803 72.9677 52.1969 73.1673 52.0969 73.3568C51.9435 73.6513 51.8534 73.8409 51.4999 73.8003C50.5461 73.6818 51.1997 71.8507 51.6366 71.4276C51.9435 71.123 51.4632 70.6559 51.153 70.9572Z" fill="#727272"/>
<path d="M55.4523 71.0043C55.2822 71.9791 56.3694 72.744 57.1465 73.0926C57.9336 73.4446 59.0309 73.5631 59.7679 73.0114C60.4716 72.4834 60.3616 71.5255 60.0581 70.7944C59.6445 69.7993 58.794 69.1292 57.8102 68.7772C57.4033 68.6316 57.2432 69.2916 57.6467 69.4338C58.2404 69.647 58.774 70.0058 59.1509 70.527C59.2809 70.7098 59.381 70.9027 59.4644 71.1126C59.6578 71.6068 59.6879 71.8301 59.3444 72.26C59.0509 72.6255 58.8974 72.7102 58.4505 72.7135C58.1703 72.7135 57.8803 72.656 57.6168 72.5612C57.2133 72.4157 55.9959 71.7726 56.0993 71.1769C56.1726 70.7437 55.529 70.5744 55.4523 71.0043Z" fill="#727272"/>
<path d="M59.3208 66.6248C60.1579 66.838 60.9916 66.4725 61.6953 66.0223C62.2089 65.694 62.8859 65.0949 62.8259 64.4011C62.7759 63.8223 62.2089 63.5481 61.702 63.4872C60.8282 63.3789 59.9711 63.7614 59.2607 64.242C58.9039 64.4823 59.2507 65.0645 59.6076 64.8208C59.9778 64.5669 60.3713 64.3435 60.8082 64.2318C61.2117 64.1269 62.3857 63.9577 62.0288 64.8072C61.7153 65.562 60.1945 66.1476 59.4842 65.9682C59.0673 65.8632 58.9039 66.5199 59.3208 66.6248Z" fill="#727272"/>
<path d="M56.2087 60.3058C56.1554 59.7914 56.2621 59.2803 56.6289 58.9012C56.8957 58.6203 57.5428 58.248 57.923 58.4646C58.2598 58.6575 58.2365 59.4698 58.2365 59.8455C58.2331 60.3837 58.1197 60.8948 57.943 61.3991C57.7996 61.8086 58.4466 61.9711 58.59 61.5649C58.8768 60.7458 58.9768 59.8861 58.8401 59.023C58.7467 58.4307 58.6467 57.8418 57.9897 57.7538C56.5356 57.5541 55.405 58.9249 55.5484 60.3228C55.5851 60.7492 56.2521 60.7391 56.2087 60.3058Z" fill="#727272"/>
<path d="M50.016 62.5699C49.4991 61.9099 49.0555 60.7118 49.2289 59.8622C49.3323 59.3477 49.4524 59.1988 49.9793 59.1447C50.5062 59.0905 50.6363 59.2496 51.0165 59.561C51.4034 59.8757 51.7802 60.2007 52.1638 60.5188C52.4939 60.793 52.9575 60.309 52.624 60.0314C51.6835 59.2462 50.1727 57.4354 48.9754 58.813C48.0483 59.8825 48.672 61.9404 49.4457 62.9253C49.7092 63.2604 50.2828 62.9118 50.016 62.5699Z" fill="#727272"/>
<path d="M48.8182 65.2067C47.5175 64.6787 45.82 65.8531 46.0201 67.3356C46.2068 68.7403 48.438 69.2615 49.4419 68.4695C49.7754 68.2055 49.4319 67.6233 49.095 67.8907C48.5481 68.3239 47.1873 68.2089 46.7871 67.5624C46.2002 66.6248 47.6309 65.4436 48.498 65.799C48.8882 65.9581 49.2151 65.3691 48.8182 65.2067Z" fill="#727272"/>
</g>
</svg>
