<svg width="77" height="95" viewBox="0 0 77 95" fill="none" xmlns="http://www.w3.org/2000/svg">
<path d="M37 95C57.4345 95 74 78.4345 74 58C74 37.5655 57.4345 21 37 21C16.5655 21 0 37.5655 0 58C0 78.4345 16.5655 95 37 95Z" fill="#46A358" fill-opacity="0.13"/>
<mask id="mask0_101_80" style="mask-type:luminance" maskUnits="userSpaceOnUse" x="19" y="45" width="55" height="48">
<path d="M74 45H19V93H74V45Z" fill="white"/>
</mask>
<g mask="url(#mask0_101_80)">
<path d="M28.1295 46.3567C40.7025 48.0203 53.392 48.2818 66.0233 47.1367C66.8797 47.06 66.8887 45.7075 66.0233 45.7842C53.392 46.9293 40.7025 46.6678 28.1295 45.0042C27.2775 44.8915 27.282 46.2485 28.1295 46.3567Z" fill="#727272"/>
<path d="M31.0303 92.0305C36.4649 92.7248 41.9353 93.0629 47.4146 92.9863C52.2349 92.9187 57.925 93.1306 62.4448 91.2235C63.2295 90.8899 62.8842 89.5825 62.0861 89.9206C57.4497 91.8773 51.5085 91.6113 46.5492 91.6428C41.3568 91.6789 36.1779 91.3363 31.0258 90.678C30.1739 90.5698 30.1784 91.9223 31.0303 92.0305Z" fill="#727272"/>
<path d="M27.6048 45.3155C21.3317 51.1673 18.4082 59.8909 19.0987 68.3981C19.453 72.7937 20.6905 77.0675 22.5514 81.0529C24.2463 84.6866 26.7439 89.8937 30.4924 91.7827C31.2637 92.1704 31.9452 91.0072 31.1695 90.615C27.681 88.8568 25.309 83.7939 23.7127 80.3721C21.8564 76.3823 20.6412 72.0498 20.3901 67.6452C19.9417 59.706 22.7128 51.7218 28.5598 46.2713C29.1966 45.6807 28.2415 44.7249 27.6048 45.3155Z" fill="#727272"/>
<path d="M65.5478 46.9522C72.1661 51.1223 72.7893 60.1164 72.6279 67.199C72.4486 75.0975 71.4755 87.6126 62.0862 89.9209C61.2477 90.1283 61.6019 91.4312 62.4449 91.2238C72.2468 88.8163 73.6547 76.3959 73.9507 68.0375C74.2242 60.2156 73.5337 50.3875 66.2248 45.7845C65.4895 45.3247 64.8169 46.4923 65.5478 46.9522Z" fill="#727272"/>
<path d="M32.5774 46.366C27.6406 51.7084 25.4614 60.6303 26.2954 67.785C26.7797 71.9462 28.089 76.0758 29.062 80.1378C30.0395 84.2088 31.0484 88.2483 33.2634 91.8414C33.7208 92.5807 34.8821 91.9 34.4248 91.1606C32.3442 87.7884 31.3757 84.0195 30.4565 80.2009C29.5687 76.5221 28.5329 72.8388 27.8468 69.1195C26.5465 62.0369 28.5822 52.6777 33.528 47.3218C34.1154 46.6816 33.1648 45.7259 32.5774 46.366Z" fill="#727272"/>
<path d="M39.2405 46.9295C35.5637 53.4395 33.6311 60.8331 33.7297 68.3259C33.7791 71.9235 34.2902 75.5257 35.2677 78.9881C36.4829 83.2845 38.3303 87.36 39.1374 91.7736C39.2943 92.6302 40.5902 92.265 40.4332 91.413C39.7292 87.5493 38.2361 83.9517 37.0478 80.2278C35.8955 76.6122 35.2049 72.8838 35.0884 69.0833C34.8552 61.5679 36.7116 54.1427 40.4018 47.6102C40.8323 46.8528 39.6709 46.1721 39.2405 46.9295Z" fill="#727272"/>
<path d="M43.2045 48.2231C44.4824 55.734 42.931 63.2583 43.061 70.8008C43.1193 74.2451 43.886 77.4505 44.3344 80.8408C44.8008 84.3618 44.0026 87.9819 43.5677 91.4759C43.4601 92.337 44.8053 92.3279 44.9129 91.4759C45.3523 87.9504 46.146 84.3031 45.6796 80.7506C45.2043 77.1169 44.4017 73.6725 44.3972 69.9757C44.3882 62.5776 45.7514 55.2336 44.5003 47.867C44.3524 47.0104 43.0565 47.3711 43.2045 48.2231Z" fill="#727272"/>
<path d="M48.2486 47.5966C50.6117 54.3816 50.8986 61.5408 51.1363 68.6594C51.3964 76.3912 51.0107 84.0012 49.5759 91.6112C49.4145 92.4633 50.7103 92.8285 50.8717 91.9719C52.329 84.2446 52.746 76.5084 52.4815 68.6594C52.2393 61.4236 51.9434 54.1291 49.5445 47.2359C49.262 46.4244 47.9617 46.776 48.2486 47.5966Z" fill="#727272"/>
<path d="M53.9077 47.6284C54.4054 49.1567 55.4815 50.1756 56.3066 51.519C57.2482 53.0519 57.7639 54.7876 58.0419 56.5548C58.6472 60.4139 58.3602 64.4534 58.3513 68.3441C58.3423 72.5774 58.6651 77.0541 57.5755 81.1882C56.616 84.8174 54.4144 87.9462 53.679 91.652C53.5086 92.5041 54.8045 92.8648 54.9749 92.0127C55.764 88.0454 58.2033 84.6867 59.0642 80.7374C59.9475 76.698 59.6875 72.4511 59.6964 68.3441C59.7054 64.5481 59.9341 60.6664 59.4364 56.8929C59.2167 55.2249 58.84 53.5748 58.1226 52.051C57.3244 50.3514 55.7864 49.0575 55.208 47.2722C54.9345 46.4472 53.6342 46.7988 53.9077 47.6284Z" fill="#727272"/>
<path d="M60.4498 47.4163C63.1222 49.941 64.4091 53.9714 65.3732 57.4518C66.3776 61.0765 66.0413 64.9447 65.8171 68.655C65.3642 76.1839 64.0997 83.7038 60.5081 90.4121C60.0956 91.1785 61.2569 91.8638 61.6695 91.0929C65.4987 83.9382 66.7767 75.8954 67.2026 67.8706C67.4179 63.8311 67.5927 59.8863 66.3327 55.9957C65.2387 52.6189 64.0325 48.9492 61.4004 46.4561C60.7727 45.8655 59.8176 46.8212 60.4498 47.4163Z" fill="#727272"/>
<path d="M32.4697 50.7975C32.3307 51.1536 32.1783 51.5053 32.0124 51.8524C31.8016 52.2897 32.0482 52.8893 32.5953 52.8713C32.9854 52.8578 33.2948 52.682 33.5728 52.416C33.6625 52.3303 33.7521 52.2401 33.8373 52.1545C33.9494 52.0418 33.8015 52.2221 33.8867 52.1184C33.8687 52.1455 33.7746 52.1365 33.8598 52.1455C33.6445 51.8614 33.4293 51.5729 33.2096 51.2889C33.1513 51.5909 33.0885 51.893 33.0302 52.1996C32.9585 52.5557 33.1334 52.9299 33.501 53.0336C33.8329 53.1238 34.2588 52.9209 34.3306 52.5602C34.3889 52.2582 34.4516 51.9561 34.5099 51.6496C34.5996 51.1897 34.3171 50.8381 33.8598 50.793C33.4876 50.7569 33.1513 50.9553 32.8867 51.1987C32.7926 51.2844 32.7119 51.3745 32.6177 51.4602C32.5863 51.4873 32.5594 51.5143 32.528 51.5414C32.5415 51.5278 32.5549 51.5188 32.5684 51.5053C32.5011 51.5414 32.5011 51.5459 32.5774 51.5143C32.5011 51.5323 32.5056 51.5368 32.5908 51.5143C32.7836 51.8524 32.9764 52.1906 33.1737 52.5332C33.3889 52.0824 33.5862 51.6225 33.7656 51.1581C33.8956 50.8155 33.6221 50.4143 33.2948 50.3241C32.9181 50.2204 32.6043 50.4549 32.4697 50.7975Z" fill="#727272"/>
<path d="M29.1384 58.8902C29.0756 59.2689 29.0129 59.6476 28.9501 60.0217C28.9008 60.3238 28.9815 60.6213 29.2595 60.7836C29.5061 60.9279 29.8783 60.9009 30.0756 60.68C30.2056 60.5312 30.3356 60.3824 30.4657 60.2336C30.5508 60.1345 30.6719 59.9496 30.775 59.8955C30.6629 59.9271 30.5508 59.9586 30.4343 59.9857C30.4567 59.9812 30.4836 59.9812 30.506 59.9767C30.3939 59.9451 30.2818 59.9135 30.1652 59.8865C30.1832 59.9 30.2011 59.9135 30.219 59.9271C30.1069 59.7332 29.9948 59.5394 29.8872 59.341C29.9231 59.7287 29.8155 60.1615 29.7706 60.5537C29.7079 61.1173 30.376 61.3246 30.784 61.1398C31.3131 60.8918 31.6674 60.4365 31.8557 59.891C31.479 59.9902 31.1069 60.0894 30.7302 60.1886C30.7168 60.1029 30.7033 60.0172 30.6899 59.9316C30.4701 60.7746 31.7705 61.1353 31.9857 60.2922C32.0844 59.909 31.9947 59.4898 31.6808 59.2328C31.2772 58.9037 30.7347 59.0209 30.5553 59.5303C30.4746 59.7558 30.3087 59.873 30.1025 59.9722C30.4388 60.166 30.775 60.3599 31.1158 60.5582C31.1831 59.9541 31.5059 58.8811 30.6809 58.6512C29.9859 58.4574 29.4971 59.2869 29.1205 59.7242C29.4971 59.9451 29.8693 60.1615 30.2459 60.3824C30.3087 60.0037 30.3715 59.625 30.4343 59.2508C30.4926 58.8902 30.3401 58.5205 29.9635 58.4168C29.6451 58.3311 29.1967 58.5295 29.1384 58.8902Z" fill="#727272"/>
<path d="M28.56 67.0365C28.6049 67.5685 28.6542 68.1005 28.699 68.6279C28.7663 69.3808 29.7752 69.5566 30.0218 68.8083C30.1563 68.3935 30.3446 68.0193 30.5823 67.6496C30.1743 67.5955 29.7617 67.5414 29.3537 67.4873C29.5106 67.8796 29.6182 68.2808 29.6765 68.7046C29.7438 69.1825 30.3222 69.2636 30.663 69.1103C30.8334 69.0337 30.9724 68.8849 31.0621 68.7226C31.1024 68.6505 31.1338 68.5648 31.1607 68.4882C31.1742 68.4476 31.1831 68.407 31.1966 68.3664C31.219 68.2988 31.21 68.3033 31.1787 68.38C31.08 68.4386 30.9814 68.4972 30.8827 68.5558C30.9051 68.5468 30.932 68.5423 30.9545 68.5333C30.8334 68.5333 30.7168 68.5333 30.5957 68.5333C30.5868 68.5287 30.5778 68.5242 30.5733 68.5152C30.4926 68.4341 30.4119 68.3529 30.3312 68.2718C30.3446 68.2898 30.3536 68.3078 30.3671 68.3259C30.3446 68.1501 30.3222 67.9787 30.2998 67.8029C30.2953 67.8255 30.2953 67.848 30.2908 67.866C30.2415 68.2267 30.376 68.5919 30.7617 68.7001C31.0755 68.7857 31.5419 68.5919 31.5912 68.2267C31.6315 67.9337 31.6091 67.6677 31.3939 67.4468C31.2145 67.2664 30.941 67.1808 30.6899 67.2078C30.4298 67.2394 30.2012 67.3927 30.0622 67.6136C30.0039 67.7082 29.9232 67.839 29.9187 67.9472C29.9142 68.105 29.8469 67.9923 29.9904 67.9291C30.3177 68.0644 30.6496 68.1996 30.9769 68.3349C30.9186 67.9156 30.811 67.5144 30.654 67.1176C30.4388 66.5857 29.7573 66.4324 29.4254 66.9553C29.1295 67.4197 28.9008 67.9156 28.7304 68.4341C29.1699 68.4927 29.6093 68.5558 30.0532 68.6144C30.0084 68.0824 29.959 67.5504 29.9142 67.023C29.8828 66.6578 29.6272 66.3467 29.2416 66.3467C28.8963 66.3602 28.5287 66.6713 28.56 67.0365Z" fill="#727272"/>
<path d="M30.1786 76.576C30.2235 77.3559 30.6136 78.0367 31.2907 78.4334C31.7391 78.6904 32.2951 78.3613 32.304 77.8473C32.3085 77.4506 32.3982 77.0854 32.5507 76.7202C32.174 76.8194 31.8018 76.9186 31.4252 77.0178C31.609 77.2432 31.8063 77.4416 32.026 77.6264C32.3847 77.9285 33.0394 77.8699 33.1515 77.3289C33.1784 77.2071 33.2098 77.1034 33.2501 76.9907C32.8735 77.0899 32.5013 77.1891 32.1247 77.2883C32.165 77.2657 32.1875 77.2928 32.183 77.3649C32.3265 77.7031 32.8197 77.7752 33.1022 77.6084C33.4474 77.4055 33.4878 77.0223 33.3443 76.6842C33.286 76.5489 33.1919 76.4272 33.0753 76.3325C32.6583 76.0034 32.1471 76.1251 31.9498 76.6301C31.905 76.7428 31.8736 76.851 31.8512 76.9682C32.2278 76.869 32.6 76.7698 32.9766 76.6706C32.7569 76.4858 32.5596 76.2829 32.3758 76.062C32.0171 75.6202 31.4252 75.9493 31.2503 76.3596C31.053 76.8329 30.9633 77.3334 30.9544 77.8473C31.2907 77.6535 31.627 77.4596 31.9677 77.2612C31.7077 77.1125 31.5373 76.878 31.5193 76.5715C31.4745 75.7149 30.1293 75.7059 30.1786 76.576Z" fill="#727272"/>
<path d="M32.9497 85.8498C33.1066 86.2555 33.2949 86.6297 33.5505 86.9859C33.9496 87.5359 34.7432 87.333 34.806 86.6433C34.8105 86.6027 34.8822 86.1023 34.8553 86.0797C34.6625 86.2014 34.4742 86.3232 34.2814 86.4449C34.3262 86.508 34.3666 86.5666 34.4159 86.6252C34.5863 86.8416 34.797 87.0265 35.0706 87.1031C35.2813 87.1572 35.5279 87.1302 35.7118 87.0129C35.8328 86.9318 35.918 86.8371 35.9808 86.7064C36.0032 86.6523 36.0256 86.5982 36.0481 86.5441C36.1512 86.2195 35.9539 86.1654 35.4607 86.3818C35.7297 87.2023 37.03 86.8506 36.7565 86.0211C36.5682 85.4531 36.0212 85.0834 35.4248 85.3088C35.1827 85.4035 34.9719 85.5838 34.8553 85.8182C34.8195 85.8904 34.6894 86.2014 34.7343 86.2916C34.9943 86.1428 35.2499 85.9896 35.51 85.8408C35.4741 85.7957 35.4382 85.7551 35.4069 85.71C35.1916 85.2727 34.5684 85.0248 34.12 85.1871C33.4877 85.4125 33.5146 86.0887 33.4653 86.6478C33.8823 86.5351 34.2993 86.4224 34.7208 86.3051C34.537 86.0527 34.3711 85.7867 34.2545 85.4936C33.9316 84.6912 32.6313 85.0383 32.9497 85.8498Z" fill="#727272"/>
<path d="M40.1374 50.9824C39.6532 51.3476 39.2496 51.7804 38.9851 52.3349C38.6398 53.0563 39.4424 53.6243 40.0433 53.1555C40.1868 53.0427 40.3302 52.93 40.4737 52.8173C40.5365 52.7677 40.5993 52.7181 40.6665 52.6686C40.6979 52.6415 40.7293 52.619 40.7607 52.5919C40.8728 52.5108 40.8145 52.5243 40.5858 52.628C40.4737 52.5964 40.3616 52.5649 40.245 52.5378C40.2585 52.5468 40.2719 52.5558 40.2854 52.5649C40.2047 52.4837 40.124 52.4026 40.0433 52.3214C40.0298 52.2628 40.0119 52.2087 39.9984 52.1501C40.0029 52.087 40.0029 52.078 39.9895 52.1321C39.9581 52.1546 39.9491 52.3079 39.9491 52.3304C39.9177 52.5378 39.9357 52.7407 40.0433 52.93C40.1419 53.1014 40.3168 53.2546 40.5096 53.3042C40.5903 53.3268 40.6934 53.3358 40.7786 53.3358C40.8593 53.3358 40.9311 53.3223 41.0028 53.2952C41.097 53.2682 41.0656 53.2591 40.9042 53.2682C40.8055 53.2096 40.7069 53.1509 40.6082 53.0923C40.6217 53.1059 40.6351 53.1194 40.6486 53.1329C40.5903 53.0337 40.532 52.9345 40.4737 52.8354C40.4782 52.8489 40.4827 52.8669 40.4872 52.8804C40.5096 52.7046 40.532 52.5333 40.5544 52.3575C40.5455 52.371 40.541 52.3845 40.532 52.3981C40.124 53.1645 41.2853 53.8497 41.6934 53.0788C41.8682 52.7542 41.8279 52.389 41.5544 52.1321C41.4109 51.9968 41.2181 51.9157 41.0208 51.9112C40.9087 51.9066 40.7786 51.9788 40.68 51.9698C40.7921 52.0013 40.9042 52.0329 41.0208 52.0599C41.0028 52.0464 40.9849 52.0329 40.9714 52.0239C41.0522 52.105 41.1329 52.1862 41.2136 52.2673C41.2046 52.2493 41.1956 52.2312 41.1867 52.2132C41.2181 52.3259 41.2494 52.4386 41.2763 52.5558C41.2674 52.4702 41.2808 52.5153 41.3122 52.389C41.3481 52.2312 41.3526 52.0599 41.3167 51.8976C41.2405 51.573 40.9983 51.3386 40.6755 51.28C40.3392 51.2169 40.1105 51.3927 39.8549 51.5911C39.5994 51.7894 39.3438 51.9923 39.0882 52.1907C39.4424 52.4657 39.7922 52.7362 40.1464 53.0112C40.3078 52.6776 40.5141 52.371 40.8145 52.1456C41.106 51.9292 41.2539 51.5595 41.0566 51.2214C40.8907 50.9374 40.4334 50.766 40.1374 50.9824Z" fill="#727272"/>
<path d="M37.5055 58.5922C37.3934 59.1332 37.2858 59.6742 37.1737 60.2197C37.0347 60.9094 37.7791 61.3062 38.2992 60.8779C38.4516 60.7516 38.5862 60.5938 38.6848 60.4225C38.7521 60.3053 38.8328 60.0664 38.8687 60.0078C38.7879 60.0889 38.7072 60.1701 38.6265 60.2512C38.6489 60.2377 38.6669 60.2242 38.6893 60.2061C38.5772 60.2377 38.4651 60.2693 38.3485 60.2963C38.3754 60.2918 38.4023 60.2918 38.4292 60.2873C38.3171 60.2557 38.205 60.2242 38.0884 60.1971C37.9808 60.1475 37.9763 59.9717 38.0077 60.2016C38.0167 60.2602 38.0302 60.3098 38.0481 60.3639C38.1109 60.5668 38.223 60.7471 38.3934 60.8734C38.5503 60.9906 38.7341 61.0537 38.9314 61.0492C39.0525 61.0447 39.1646 61.0131 39.2722 60.959C39.3305 60.9365 39.3798 60.9049 39.4247 60.8643C39.5412 60.7832 39.5099 60.7877 39.335 60.8689C39.2229 60.8373 39.1108 60.8057 38.9942 60.7787C39.0121 60.7877 39.0166 60.7967 39.0301 60.8328C39.317 61.6488 40.6174 61.2971 40.3259 60.4721C40.2004 60.116 40.0165 59.7869 39.6713 59.611C39.4919 59.5164 39.2677 59.4893 39.0704 59.5344C38.8731 59.5795 38.7566 59.7102 38.5862 59.7914C38.6983 59.7598 38.8104 59.7283 38.9269 59.7012C38.9045 59.7012 38.8776 59.7012 38.8552 59.7012C38.9673 59.7328 39.0794 59.7643 39.196 59.7914C39.317 60.0033 39.3529 60.0348 39.3036 59.886C39.2946 59.8274 39.2857 59.7688 39.2767 59.7102C39.2453 59.593 39.196 59.4713 39.1332 59.3721C38.9673 59.1106 38.6938 58.9393 38.3844 58.9438C38.0795 58.9483 37.8015 59.1241 37.658 59.3901C37.5369 59.6155 37.5459 59.7508 37.3396 59.9221C37.7163 60.143 38.0884 60.3594 38.4651 60.5803C38.5772 60.0393 38.6848 59.4983 38.7969 58.9573C38.9763 58.1008 37.6804 57.7401 37.5055 58.5922Z" fill="#727272"/>
<path d="M36.9854 65.5039C36.8464 66.2298 36.7567 66.9601 36.7343 67.695C36.7163 68.2089 37.3172 68.5335 37.7476 68.281C37.9449 68.1638 38.0884 68.006 38.196 67.8032C38.2364 67.7265 38.353 67.5507 38.3306 67.4831C38.3261 67.4741 38.2857 67.5327 38.3037 67.5236C38.1916 67.5552 38.0795 67.5868 37.9629 67.6138C37.9539 67.6183 37.9405 67.6183 37.9315 67.6228C37.8508 67.5417 37.7701 67.4605 37.6894 67.3794C37.7656 67.4786 37.7566 67.4695 37.7656 67.5732C37.8149 68.1278 38.4785 68.4974 38.9135 68.0511C38.9628 67.997 39.0121 67.9474 39.0659 67.8978C38.9718 67.9429 38.8731 67.9339 38.779 67.8798C38.7207 67.7806 38.6624 67.6814 38.6041 67.5823C38.613 67.6093 38.622 67.6364 38.6355 67.6634C38.761 68.006 39.0928 68.2405 39.465 68.1368C39.7923 68.0466 40.0614 67.6499 39.9358 67.3027C39.5861 66.347 38.5682 66.4687 37.9629 67.0954C38.344 67.2531 38.7296 67.4154 39.1108 67.5732C39.057 66.9195 38.7341 66.2117 37.9629 66.2613C37.649 66.2793 37.371 66.4642 37.2051 66.7302C37.1468 66.8249 37.1064 66.9331 37.0616 67.0367C37.0123 67.1495 36.9271 67.19 37.0661 67.1089C37.4024 67.3027 37.7387 67.4966 38.0795 67.695C38.0974 67.0773 38.1647 66.4687 38.2812 65.8601C38.4471 65.0125 37.1513 64.6518 36.9854 65.5039Z" fill="#727272"/>
<path d="M37.6534 73.2265C37.8058 73.8306 37.9897 74.4212 38.2049 75.0028C38.3798 75.4761 38.9403 75.6745 39.3304 75.3003C39.5008 75.1335 39.6173 74.9396 39.6756 74.7052C39.6981 74.6105 39.716 74.4978 39.7205 74.4031C39.7339 74.1146 39.7025 74.3536 39.7294 74.34C39.6173 74.3716 39.5052 74.4031 39.3887 74.4302C39.42 74.4302 39.447 74.4257 39.4783 74.4257C39.3662 74.3941 39.2541 74.3626 39.1376 74.3355C39.0479 74.2949 39.0748 74.2544 39.1465 74.3806C39.1824 74.4437 39.2138 74.4978 39.2586 74.5564C39.3976 74.7368 39.568 74.8585 39.7967 74.89C39.9985 74.9171 40.1913 74.8675 40.3617 74.7503C40.4558 74.6827 40.541 74.606 40.6038 74.5068C40.6307 74.4527 40.6576 74.3986 40.68 74.3445C40.7697 74.1687 40.6935 74.2138 40.4514 74.4843C40.3303 74.4843 40.2137 74.4843 40.0926 74.4843C40.0388 74.4392 39.9895 74.3896 39.9357 74.3445C39.9043 74.2318 39.8729 74.1191 39.846 74.0019C39.846 74.029 39.846 74.056 39.846 74.0831C39.8326 74.9532 41.1778 74.9532 41.1912 74.0831C41.2002 73.6277 40.8863 73.2716 40.4514 73.1814C40.2182 73.1318 39.985 73.1814 39.7922 73.3211C39.6981 73.3888 39.6218 73.4654 39.5591 73.5601C39.5456 73.5871 39.5321 73.6187 39.5142 73.6457C39.3976 73.8712 39.429 73.8667 39.6129 73.6322C39.725 73.6007 39.8371 73.5691 39.9536 73.5421C39.9312 73.5466 39.9088 73.5466 39.8864 73.5511C39.9985 73.5826 40.1106 73.6142 40.2272 73.6412C40.42 73.7359 40.3213 73.7044 40.2496 73.5781C40.1958 73.4789 40.124 73.3843 40.0433 73.3121C39.7877 73.0822 39.4514 73.0236 39.1331 73.1363C38.8775 73.2265 38.6847 73.4248 38.5546 73.6548C38.4829 73.7855 38.447 73.9162 38.4201 74.0605C38.4067 74.1236 38.4201 74.304 38.3798 74.3445C38.7564 74.4437 39.1286 74.5429 39.5052 74.6421C39.29 74.0605 39.1062 73.4654 38.9537 72.8658C38.734 72.0273 37.4381 72.3834 37.6534 73.2265Z" fill="#727272"/>
<path d="M38.3302 79.6867C38.5724 80.4035 38.8818 81.0933 39.2629 81.7425C39.5364 82.2068 40.1418 82.1527 40.4242 81.7425C40.5005 81.6298 40.5543 81.5126 40.5901 81.3818C40.5946 81.3412 40.5991 81.3052 40.6081 81.2646C40.6798 81.0031 40.617 81.0121 40.4108 81.2962C40.2897 81.2962 40.1731 81.2962 40.0521 81.2962C39.8637 81.2376 39.9489 81.2511 40.0476 81.3593C40.1193 81.4359 40.209 81.5171 40.3032 81.5712C40.496 81.6794 40.7247 81.72 40.9444 81.7019C41.4466 81.6659 41.7918 81.3322 41.9577 80.8769C42.2582 80.0609 40.9578 79.7047 40.6619 80.5162C40.7471 80.2908 40.9578 80.417 40.922 80.3088C40.8951 80.2322 40.7381 80.1285 40.6664 80.0879C40.4467 79.9617 40.1821 79.9347 39.9445 80.0158C39.7247 80.0879 39.5499 80.2547 39.4378 80.4576C39.3391 80.638 39.366 80.9084 39.2584 81.0617C39.644 81.0617 40.0341 81.0617 40.4198 81.0617C40.0924 80.5072 39.8279 79.9392 39.6216 79.3305C39.3526 78.51 38.0522 78.8617 38.3302 79.6867Z" fill="#727272"/>
<path d="M40.1016 87.4008C40.1061 87.775 40.1599 88.1492 40.2765 88.5008C40.3617 88.7578 40.5635 88.9471 40.837 88.9832C41.0836 89.0148 41.393 88.9021 41.5051 88.6586C41.5813 88.4963 41.6576 88.334 41.7338 88.1762C41.7697 88.0996 41.8055 88.0274 41.8369 87.9508C41.8548 87.9147 41.8728 87.8742 41.8907 87.8381C41.9266 87.7705 41.9266 87.7705 41.8907 87.8381C41.7921 87.8967 41.6934 87.9553 41.5948 88.0139C41.6082 88.0094 41.6262 88.0004 41.6396 87.9959C41.5186 87.9959 41.402 87.9959 41.2809 87.9959C41.2585 87.9869 41.2316 87.9733 41.2092 87.9643C41.1284 87.8832 41.0477 87.802 40.967 87.7209C40.8998 87.6082 40.9625 87.7028 40.9894 87.7795C41.0119 87.8516 41.0388 87.9192 41.0612 87.9914C41.1105 88.1311 41.1598 88.2754 41.2047 88.4152C41.3213 88.7623 41.6665 88.9877 42.0342 88.8885C42.366 88.7984 42.6216 88.4016 42.505 88.0545C42.3122 87.4955 42.1508 86.5758 41.3706 86.6795C40.7652 86.7606 40.5635 87.5 40.3393 87.9779C40.7473 88.032 41.1598 88.0861 41.5679 88.1402C41.4827 87.8742 41.4423 87.6578 41.4378 87.3963C41.4334 87.0446 41.1329 86.702 40.7653 86.72C40.411 86.7381 40.0971 87.0221 40.1016 87.4008Z" fill="#727272"/>
<path d="M46.2803 88.2209C46.2444 88.5275 46.2085 88.8386 46.1727 89.1451C46.1368 89.4337 46.4058 89.7267 46.6659 89.7988C46.9708 89.8845 47.2533 89.7357 47.4237 89.4878C47.5448 89.3119 47.6658 89.1406 47.7869 88.9648C47.8407 88.8836 47.899 88.807 47.9528 88.7259C47.9752 88.6943 47.9976 88.6627 48.02 88.6312C48.1187 88.4959 48.1052 88.5049 47.9842 88.6582C47.8721 88.6898 47.76 88.7213 47.6434 88.7484C47.6658 88.7484 47.6838 88.7484 47.7062 88.7484C47.5941 88.7168 47.482 88.6853 47.3654 88.6582C47.2309 88.4238 47.186 88.3787 47.2309 88.523C47.2443 88.5771 47.2533 88.6357 47.2667 88.6898C47.2892 88.8025 47.3116 88.9107 47.3385 89.0234C47.3878 89.2578 47.4102 89.5328 47.5313 89.7447C47.6479 89.9431 47.8407 90.1144 48.0649 90.1775C48.4102 90.2722 48.6926 90.0964 48.8944 89.8259C49.1141 89.5328 48.9393 89.0685 48.6523 88.9017C48.307 88.6988 47.9528 88.8521 47.7331 89.1451C47.7241 89.1587 47.7151 89.1722 47.7062 89.1812C47.899 89.0685 48.0918 88.9558 48.2891 88.8476C48.2756 88.8476 48.2622 88.8521 48.2487 88.8521C48.3608 88.8836 48.4729 88.9152 48.5895 88.9423C48.7061 89.0009 48.7778 89.33 48.7106 88.9964C48.6926 88.9017 48.6702 88.8115 48.6523 88.7168C48.6164 88.55 48.585 88.3832 48.5492 88.2164C48.4684 87.8648 48.2577 87.5221 47.89 87.4184C47.482 87.3057 47.1591 87.5402 46.9305 87.8467C46.7018 88.1578 46.4865 88.4779 46.2668 88.7935C46.6838 88.9062 47.1008 89.0189 47.5223 89.1361C47.5582 88.8295 47.5941 88.5185 47.6299 88.2119C47.6703 87.8467 47.2892 87.5357 46.9574 87.5357C46.5583 87.5447 46.3251 87.8603 46.2803 88.2209Z" fill="#727272"/>
<path d="M46.9261 75.8727C46.7601 76.594 46.6794 77.3334 46.6929 78.0728C46.7019 78.7084 47.6345 79.0375 47.9484 78.4154C48.0829 78.1449 48.2174 77.8789 48.3519 77.6084C48.4506 77.41 48.5223 77.1621 48.7017 77.0223C48.603 77.0809 48.5044 77.1395 48.4058 77.1982C48.4058 77.1936 48.4058 77.1891 48.4102 77.1846C48.195 77.0178 47.9798 76.8555 47.7601 76.6887C47.8453 77.0088 47.9305 77.3289 48.0157 77.649C48.1233 78.0502 48.6389 78.2937 49.0021 78.0547C49.0649 78.0142 49.1277 77.9691 49.1904 77.9285C49.9079 77.4506 49.2353 76.2785 48.5134 76.7608C48.4506 76.8014 48.3878 76.8465 48.325 76.8871C48.6524 77.0223 48.9842 77.1576 49.3115 77.2928C49.2263 76.9727 49.1411 76.6526 49.0559 76.3326C48.9797 76.0485 48.7017 75.8321 48.4058 75.8366C47.4596 75.8547 47.1368 77.0359 46.7871 77.7392C47.2041 77.8519 47.6211 77.9646 48.0426 78.0818C48.0336 77.4551 48.0874 76.851 48.2264 76.2379C48.4147 75.3858 47.1189 75.0251 46.9261 75.8727Z" fill="#727272"/>
<path d="M45.6439 65.7563C45.6753 66.2883 45.7022 66.8157 45.7336 67.3477C45.7694 68.015 46.6214 68.2719 46.9891 67.6904C47.2491 67.2756 47.5092 66.8653 47.7693 66.4506C47.3837 66.4506 46.9936 66.4506 46.6079 66.4506C46.7021 66.6129 46.7604 66.7616 46.7694 66.951C46.8008 67.5461 47.4778 67.8301 47.9173 67.4289C48.258 67.1223 48.4777 66.7526 48.6437 66.3243C48.3163 66.4596 47.9845 66.5948 47.6572 66.7301C47.6572 66.7391 47.6572 66.7481 47.6527 66.7526C47.5944 66.6534 47.5361 66.5543 47.4778 66.4551C47.4913 66.4821 47.5002 66.5137 47.5137 66.5407C47.6527 66.8789 47.9576 67.1178 48.3432 67.0141C48.6571 66.9284 48.953 66.5227 48.814 66.1801C48.6975 65.9051 48.5764 65.7383 48.3343 65.5579C47.9531 65.2739 47.4868 65.5985 47.3478 65.9637C47.2671 66.1711 47.1281 66.3243 46.9667 66.4731C47.3478 66.6309 47.7334 66.7932 48.1145 66.951C48.0921 66.5272 47.9845 66.135 47.7693 65.7698C47.5047 65.3235 46.877 65.3415 46.6079 65.7698C46.3479 66.1846 46.0878 66.5948 45.8277 67.0096C46.2447 67.1223 46.6618 67.235 47.0832 67.3522C47.0519 66.8202 47.025 66.2928 46.9936 65.7608C46.9398 64.8907 45.5946 64.8862 45.6439 65.7563Z" fill="#727272"/>
<path d="M46.0067 56.8162C45.9663 57.1588 45.9484 57.5014 45.9574 57.8441C45.9708 58.3129 46.5358 58.7457 46.9707 58.4302C47.1949 58.2679 47.3339 58.083 47.4102 57.817C47.4281 57.7539 47.446 57.6818 47.455 57.6187C47.464 57.56 47.4998 57.5555 47.4505 57.6006C47.2174 57.817 46.9707 58.1281 46.5986 57.6773C46.6389 57.7269 46.6255 57.7223 46.5986 57.6637C46.63 57.7314 46.6524 57.808 46.6838 57.8756C46.7376 57.9928 46.8183 58.0965 46.908 58.1867C47.186 58.4617 47.5985 58.5158 47.9348 58.322C48.2531 58.1416 48.3563 57.7088 48.1769 57.3977C47.9886 57.0777 47.5761 56.974 47.2577 57.1543C47.2443 57.1633 47.2263 57.1723 47.2129 57.1813C47.325 57.1498 47.4371 57.1182 47.5536 57.0912C47.5895 57.0867 47.9124 57.267 47.8855 57.276C47.9034 57.3121 47.9034 57.3121 47.8899 57.2805C47.8765 57.2445 47.863 57.2084 47.8451 57.1723C47.7913 57.0416 47.7285 56.9199 47.6299 56.8117C47.4102 56.5817 47.0694 56.469 46.76 56.5682C46.4685 56.6584 46.2757 56.8928 46.1816 57.1768C46.1591 57.24 46.1502 57.3031 46.1322 57.3707C46.1233 57.4023 46.1143 57.4293 46.1098 57.4609C46.0919 57.5195 46.0919 57.5195 46.1143 57.4609C46.1412 57.3752 46.1995 57.3076 46.2892 57.2625C46.6255 57.4564 46.9618 57.6502 47.3025 57.8486C47.2936 57.5059 47.3115 57.1633 47.3519 56.8207C47.3967 56.469 47.0111 56.1309 46.6793 56.1444C46.2802 56.1625 46.056 56.442 46.0067 56.8162Z" fill="#727272"/>
<path d="M45.5945 49.8821C45.4689 50.378 45.5317 50.8875 45.7962 51.3248C46.1101 51.8567 46.832 51.6944 47.0248 51.1625C47.0966 50.9641 46.989 51.2842 47.0562 51.0813C47.0831 51.0047 47.1056 51.0407 47.0383 51.0723C46.832 51.1805 46.554 51.1084 46.4913 50.8379C46.5765 51.194 46.9755 51.4059 47.3208 51.3112C47.6795 51.2121 47.8768 50.8379 47.7916 50.4772C47.6705 49.9633 47.1145 49.6882 46.6168 49.8055C46.1281 49.9272 45.8904 50.3555 45.729 50.7973C46.137 50.7432 46.5495 50.6891 46.9576 50.635C46.8903 50.5178 46.8814 50.5268 46.8679 50.387C46.8769 50.4592 46.8724 50.369 46.8724 50.3465C46.8814 50.1481 46.8455 50.4276 46.8903 50.2338C46.9755 49.8911 46.7782 49.4854 46.4195 49.3997C46.0743 49.3276 45.6886 49.5124 45.5945 49.8821Z" fill="#727272"/>
<path d="M26.3673 48.2865C26.17 48.548 25.9906 48.823 25.8337 49.1116C25.5692 49.5849 26.0175 50.3243 26.5915 50.1034C26.7977 50.0268 26.9995 49.9456 27.2058 49.869C26.9323 49.7112 26.6543 49.5534 26.3763 49.3956C26.4121 49.4993 26.4301 49.5669 26.4256 49.6706C26.4211 50.0132 26.7395 50.3784 27.0982 50.3468C27.4345 50.3198 27.7214 50.2386 28.0219 50.0944C28.3492 49.9366 28.4344 49.4632 28.264 49.1702C28.0667 48.8321 27.6721 48.7689 27.3448 48.9267C27.2775 48.9583 27.152 48.9898 27.0982 48.9944C27.3224 49.2198 27.5466 49.4452 27.7708 49.6706C27.7752 49.4542 27.7439 49.2378 27.6721 49.0349C27.56 48.7148 27.2058 48.4263 26.8426 48.5616C26.6363 48.6382 26.4346 48.7193 26.2283 48.796C26.4794 49.1251 26.735 49.4587 26.9861 49.7878C27.1475 49.4993 27.3224 49.2243 27.5197 48.9628C27.7394 48.6698 27.5645 48.2054 27.2775 48.0386C26.9412 47.8447 26.587 47.9935 26.3673 48.2865Z" fill="#727272"/>
<path d="M22.5605 55.8784C22.3049 56.4419 22.0852 57.019 21.9058 57.6141C21.7937 57.9838 22.0404 58.3264 22.3767 58.4481C22.6636 58.5518 22.973 58.4887 23.2241 58.3264C23.3317 58.2542 23.4035 58.1821 23.4842 58.0874C23.7936 57.7178 23.3676 58.1956 23.1165 57.8846C23.0582 57.7854 22.9999 57.6862 22.9416 57.587C22.9058 57.4608 22.9327 57.7223 22.9327 57.7178C22.9461 57.8215 22.973 57.9297 23.0268 58.0243C23.13 58.2001 23.3183 58.3444 23.5111 58.3985C23.8743 58.4977 24.3406 58.3579 24.4976 57.9883C24.641 57.6546 24.5962 57.2624 24.2554 57.0641C23.9729 56.8972 23.4797 56.9694 23.3362 57.3075C23.3497 57.2895 23.3631 57.2714 23.3811 57.2579C23.4797 57.1993 23.5783 57.1407 23.677 57.0821C23.8115 57.1227 23.946 57.1632 24.0805 57.2038C24.1388 57.303 24.1971 57.4022 24.2554 57.5014C24.2913 57.6276 24.2644 57.3165 24.2554 57.285C24.2195 57.1497 24.1568 57.028 24.0671 56.9288C23.9012 56.753 23.686 56.6493 23.4438 56.6358C23.2241 56.6267 23.0223 56.6899 22.843 56.8161C22.7578 56.8747 22.686 56.9423 22.6188 57.0235C22.3408 57.3481 22.5336 57.0731 22.7398 57.1452C22.8968 57.4247 23.0537 57.6997 23.2107 57.9792C23.3541 57.4969 23.5245 57.028 23.7308 56.5681C23.8788 56.2345 23.825 55.8423 23.4887 55.6439C23.1927 55.4681 22.7085 55.5448 22.5605 55.8784Z" fill="#727272"/>
<path d="M21.0719 63.8539C20.9284 64.6293 20.9284 65.3822 21.0809 66.1576C21.1571 66.5408 21.5696 66.6851 21.9104 66.631C22.1077 66.5994 22.2915 66.4867 22.4305 66.3379C22.4888 66.2748 22.5426 66.1982 22.592 66.126C22.6189 66.0855 22.6413 66.0449 22.6637 65.9998C22.7041 65.9367 22.6906 65.9412 22.6144 66.0043C22.4933 66.0043 22.3767 66.0043 22.2557 66.0043C22.2871 66.0133 22.3184 66.0223 22.3498 66.0314C22.2512 65.9728 22.1525 65.9141 22.0539 65.8555C22.0046 65.7518 22.0001 65.7564 22.0449 65.8691C22.0673 65.9232 22.0898 65.9773 22.1122 66.0314C22.1839 66.1666 22.2826 66.2748 22.4081 66.356C22.7085 66.5588 22.9821 66.5453 23.3049 66.3965C23.6367 66.2478 23.7174 65.7609 23.547 65.4723C23.3497 65.1297 22.9596 65.0801 22.6278 65.2289C22.6054 65.2379 22.5785 65.2514 22.5561 65.2604C22.731 65.2379 22.9014 65.2154 23.0762 65.1928C23.0493 65.1838 23.0224 65.1793 22.9955 65.1703C23.0942 65.2289 23.1928 65.2875 23.2915 65.3461C23.3184 65.4363 23.3184 65.4453 23.2959 65.3777C23.2735 65.3055 23.2466 65.2379 23.2152 65.1748C23.1749 65.0981 23.13 65.0215 23.0673 64.9584C22.8789 64.7555 22.6189 64.6608 22.3453 64.6879C22.1077 64.7104 21.897 64.8276 21.731 64.999C21.6503 65.0801 21.5831 65.1748 21.5248 65.274C21.5113 65.301 21.4934 65.3281 21.4799 65.3551C21.3948 65.4814 21.4172 65.4678 21.5517 65.3191C21.8252 65.4768 22.1032 65.6346 22.3812 65.7924C22.2781 65.2695 22.2736 64.733 22.3722 64.21C22.4395 63.8493 22.2736 63.4797 21.9014 63.376C21.5696 63.2903 21.1392 63.4932 21.0719 63.8539Z" fill="#727272"/>
<path d="M22.031 73.614C22.2194 73.9927 22.4032 74.3714 22.5915 74.7501C22.7574 75.0837 23.2103 75.1604 23.5107 74.9936C23.7529 74.8583 23.9188 74.6419 23.995 74.3714C24.0309 74.2497 24.0533 74.0964 24.0399 73.9702C24.0264 73.8259 24.0892 73.8665 24.0129 73.9341C23.9143 73.9927 23.8157 74.0513 23.717 74.1099C23.708 74.1144 23.6991 74.1144 23.6901 74.119C23.578 74.0874 23.4659 74.0558 23.3493 74.0288C23.5825 74.164 23.6946 74.3804 24.0354 74.3804C24.4389 74.3804 24.5286 74.1415 24.7707 73.9026C24.6721 73.9612 24.5734 74.0198 24.4748 74.0784C24.3448 73.9972 24.2147 73.9161 24.0847 73.8304C24.1385 74.1911 24.5914 74.3895 24.9142 74.3038C25.2998 74.1956 25.4388 73.8349 25.385 73.4698C25.3223 73.064 24.9411 72.762 24.5465 72.7214C24.0847 72.6763 23.7843 72.9288 23.5646 73.3075C23.6453 73.2263 23.726 73.1452 23.8067 73.064C23.7843 73.082 23.7574 73.1001 23.7349 73.1181C23.847 73.0866 23.9591 73.055 24.0757 73.0279C24.0533 73.0279 24.0264 73.0279 24.004 73.0279C24.1161 73.0595 24.2282 73.0911 24.3448 73.1181C24.264 73.073 24.0533 72.8431 23.8739 72.7935C23.6184 72.7214 23.3493 72.7755 23.1386 72.9333C22.9503 73.073 22.8202 73.2804 22.753 73.5013C22.7081 73.6411 22.7574 73.9251 22.6857 74.0243C22.7664 73.9431 22.8471 73.862 22.9278 73.7808C22.9009 73.7944 22.874 73.8124 22.8426 73.8259C23.1475 73.9071 23.4569 73.9882 23.7618 74.0694C23.5735 73.6907 23.3897 73.312 23.2014 72.9333C22.8068 72.1488 21.6454 72.8341 22.031 73.614Z" fill="#727272"/>
<path d="M26.1832 83.6585C26.1608 84.2401 26.7616 84.5692 27.2683 84.4114C27.5104 84.3348 27.6853 84.1635 27.8019 83.9471C27.8198 83.911 27.8378 83.8704 27.8557 83.8344C27.9543 83.6766 27.8557 83.7217 27.5508 83.9786C27.4118 83.9606 27.4746 83.9606 27.5732 84.0147C27.8916 84.1905 28.3086 84.0913 28.4924 83.7713C28.6718 83.4602 28.5686 83.0229 28.2503 82.847C27.9185 82.6622 27.5418 82.554 27.1741 82.7073C26.9858 82.7884 26.8289 82.9237 26.7213 83.104C26.6899 83.1536 26.6585 83.2122 26.6405 83.2708C26.6316 83.2889 26.6226 83.3069 26.6136 83.3249C26.8468 83.0634 27.0889 83.0409 27.3445 83.2573C27.4028 83.3565 27.4611 83.4557 27.5194 83.5549C27.5239 83.5909 27.5284 83.627 27.5329 83.6631C27.5463 83.3069 27.2145 82.9688 26.8603 82.9868C26.4791 83.0003 26.1966 83.2798 26.1832 83.6585Z" fill="#727272"/>
<path d="M51.0376 50.1574C51.1183 50.5632 51.2573 50.9419 51.4322 51.3161C51.5981 51.6632 52.051 51.7083 52.3514 51.5595C52.5218 51.4739 52.6608 51.3206 52.7505 51.1538C52.7774 51.1042 52.7953 51.0501 52.8222 50.996C52.9657 50.6849 52.8178 51.1538 52.4725 51.1177C52.3604 51.0861 52.2483 51.0546 52.1317 51.0275C52.0555 50.9915 52.2438 51.1132 52.2438 51.1132C52.3156 51.1673 52.3649 51.1988 52.4501 51.2349C52.6249 51.3116 52.8043 51.3251 52.9926 51.298C53.3962 51.2304 53.6338 50.9689 53.7863 50.6038C53.9253 50.2656 53.6338 49.8599 53.3155 49.7697C52.9299 49.6615 52.6294 49.905 52.4859 50.2431C52.6429 49.95 52.8402 49.8869 53.0733 50.0537C53.0554 50.0357 53.0375 50.0177 53.0151 50.0041C52.9299 49.9185 52.7684 49.8283 52.6519 49.7968C52.4366 49.7382 52.2035 49.7742 52.0151 49.8869C51.8582 49.9816 51.7461 50.1304 51.6699 50.2927C51.6519 50.3333 51.6295 50.3783 51.6116 50.4234C51.5623 50.5677 51.5892 50.4324 51.6699 50.3964C51.9748 50.4775 52.2842 50.5587 52.5891 50.6398C52.4635 50.3738 52.3873 50.0943 52.329 49.8058C52.2617 49.4451 51.8313 49.2422 51.4995 49.3324C51.1363 49.4271 50.9704 49.7968 51.0376 50.1574Z" fill="#727272"/>
<path d="M52.5982 57.8979C52.6834 58.3262 52.773 58.7545 52.8582 59.1828C53.0017 59.8906 53.9478 59.7599 54.1541 59.1828C54.2214 58.9889 54.3379 58.8627 54.4859 58.7275C54.1317 58.6824 53.7819 58.6373 53.4277 58.5922C53.5443 58.8627 53.6653 59.1377 53.7819 59.4082C53.9164 59.7193 54.4366 59.8545 54.7011 59.6517C54.8626 59.5299 54.9926 59.4217 55.0957 59.2414C55.1316 59.1783 55.1719 59.1016 55.1944 59.0295C55.2033 58.998 55.2168 58.9664 55.2347 58.9394C55.3423 58.741 55.1361 58.6779 54.6115 58.75C54.5621 59.1107 54.9567 59.4262 55.284 59.4262C55.6876 59.4262 55.9073 59.1152 55.9566 58.75C56.0329 58.1865 55.5082 57.677 54.9657 57.677C54.6922 57.677 54.4455 57.7987 54.2617 57.9926C54.1765 58.0828 54.1182 58.182 54.0599 58.2902C54.0241 58.3623 53.8851 58.5877 54.0241 58.484C54.329 58.5652 54.6384 58.6463 54.9433 58.7275C54.8267 58.457 54.7056 58.182 54.589 57.9115C54.4052 57.4877 53.8178 57.5147 53.5308 57.7762C53.208 58.0692 53.0017 58.4209 52.8538 58.8266C53.2842 58.8266 53.7192 58.8266 54.1496 58.8266C54.0644 58.3984 53.9747 57.9701 53.8895 57.5418C53.7236 56.6852 52.4233 57.0459 52.5982 57.8979Z" fill="#727272"/>
<path d="M53.7774 68.2403C53.7371 68.5784 53.7774 68.9256 53.8671 69.2502C53.9792 69.6424 54.4904 69.9084 54.8536 69.6559C55.0912 69.4891 55.2347 69.3088 55.3379 69.0383C55.3648 68.9707 55.3872 68.8985 55.4096 68.8264C55.45 68.6821 55.4096 68.876 55.293 68.894C55.172 68.894 55.0554 68.894 54.9343 68.894C54.8222 68.8489 54.7505 68.7813 54.7325 68.6821C54.7191 68.6371 54.7236 68.6506 54.7505 68.7227C54.7639 68.7633 54.7774 68.8084 54.7908 68.8489C54.867 69.0563 54.9747 69.2231 55.145 69.3629C55.5127 69.6604 55.9297 69.6109 56.2885 69.3313C56.5754 69.1059 56.5216 68.61 56.2885 68.3756C56.006 68.0915 55.6248 68.1502 55.3379 68.3756C55.3244 68.3891 55.3065 68.3981 55.293 68.4116C55.3917 68.353 55.4903 68.2944 55.589 68.2358C55.571 68.2403 55.5531 68.2448 55.5352 68.2493C55.6562 68.2493 55.7728 68.2493 55.8939 68.2493C55.9746 68.2629 56.0912 68.5108 56.0418 68.362C56.006 68.2448 55.9611 68.1231 55.8983 68.0194C55.71 67.7129 55.3782 67.537 55.024 67.5731C54.7101 67.6047 54.4545 67.803 54.2841 68.0645C54.2124 68.1772 54.1631 68.3034 54.1227 68.4297C54.1093 68.4702 54.0824 68.5289 54.0779 68.5694C54.0734 68.628 54.0644 68.5559 54.1765 68.4793C54.5038 68.6145 54.8357 68.7498 55.163 68.885C55.1002 68.6641 55.0912 68.4657 55.1181 68.2358C55.1585 67.8706 54.7774 67.5596 54.4456 67.5596C54.0554 67.5641 53.8223 67.8752 53.7774 68.2403Z" fill="#727272"/>
<path d="M53.4053 76.2017C53.3694 76.6435 53.4053 77.0763 53.4725 77.5136C53.5532 78.0231 54.2752 78.1538 54.598 77.8112C54.7146 77.6895 54.8356 77.5677 54.9612 77.455C55.0733 77.3558 55.1899 77.2567 55.2796 77.1935C54.9522 77.0583 54.6204 76.923 54.2931 76.7878C54.3334 76.905 54.3334 76.7698 54.32 76.896C54.329 76.8013 54.2662 76.9816 54.311 76.905C54.1362 77.2251 54.2348 77.6444 54.5532 77.8292C54.8626 78.0095 55.2975 77.9104 55.4724 77.5858C55.6652 77.2296 55.728 76.8148 55.5934 76.4271C55.4634 76.0574 54.9791 75.7464 54.607 76.0214C54.2662 76.2738 53.9478 76.5443 53.6564 76.8509C54.033 76.9501 54.4052 77.0493 54.7818 77.1485C54.737 76.8554 54.737 76.5128 54.7594 76.1927C54.7863 75.841 54.4321 75.5029 54.0868 75.5165C53.6922 75.5435 53.4367 75.823 53.4053 76.2017Z" fill="#727272"/>
<path d="M52.9748 85.0339C52.7327 85.4442 52.5489 85.895 52.4457 86.3639C52.365 86.72 52.5534 87.0942 52.9165 87.1979C53.2932 87.3016 53.616 87.0717 53.7461 86.7245C53.7864 86.6118 53.9209 86.3684 53.9927 86.2737C53.6743 86.2737 53.3605 86.2737 53.0421 86.2737C52.9614 86.1745 52.939 86.0663 52.9704 85.9401C52.9121 86.3008 53.0645 86.6659 53.4412 86.7741C53.764 86.8643 54.2079 86.6659 54.2707 86.3008C54.3335 85.9266 54.2662 85.5975 53.9972 85.3179C53.764 85.0745 53.2708 85.0339 53.0466 85.3179C52.7865 85.6425 52.5982 85.9716 52.4502 86.3639C52.8807 86.4856 53.3156 86.6028 53.7461 86.7245C53.8313 86.3458 53.9434 86.0483 54.1407 85.7192C54.3245 85.4036 54.2124 84.9753 53.8985 84.795C53.5802 84.6056 53.1632 84.7183 52.9748 85.0339Z" fill="#727272"/>
<path d="M57.8984 87.7343C57.6204 88.0995 57.4903 88.5504 57.4679 89.0057C57.4545 89.2717 57.6473 89.5287 57.8804 89.6233C58.145 89.7315 58.4006 89.6684 58.6158 89.4836C58.9476 89.1995 59.2794 88.911 59.6112 88.627C59.257 88.5819 58.9072 88.5368 58.553 88.4917C58.5261 88.4512 58.5396 88.3926 58.5441 88.3475C58.5485 88.3159 58.6203 88.2077 58.5485 88.3204C58.3557 88.6315 58.4813 89.0643 58.7907 89.2446C59.1135 89.434 59.5171 89.3123 59.7099 89.0012C59.9386 88.636 59.9341 88.1717 59.7144 87.802C59.4767 87.4052 58.988 87.3827 58.6562 87.6667C58.3243 87.9507 57.9925 88.2393 57.6607 88.5233C58.0418 88.6811 58.4275 88.8434 58.8086 89.0012C58.8176 88.7983 58.7727 89.0913 58.8176 88.8975C58.8355 88.8299 58.8534 88.7577 58.8759 88.6901C58.84 88.7848 58.9297 88.5954 58.9297 88.5909C58.9655 88.5278 59.0059 88.4692 59.0507 88.4151C59.2704 88.1221 59.0956 87.6577 58.8086 87.4909C58.4723 87.288 58.1226 87.4413 57.8984 87.7343Z" fill="#727272"/>
<path d="M60.3825 78.88C60.2883 79.3939 60.2345 79.9124 60.23 80.4398C60.221 81.1025 61.1582 81.373 61.4855 80.7825C61.6873 80.4128 61.9249 80.0927 62.2209 79.7951C61.9474 79.8312 61.6783 79.8673 61.4048 79.8988C61.3913 79.8898 61.3734 79.8763 61.36 79.8673C61.3017 79.7681 61.2434 79.6689 61.1851 79.5697C61.1716 79.5292 61.2165 79.4029 61.1716 79.5472C61.1402 79.6373 61.1223 79.7816 61.1178 79.8673C61.1089 80.0837 61.1716 80.2956 61.2972 80.4714C61.4407 80.6652 61.6783 80.796 61.9249 80.796C62.0595 80.796 62.2164 80.7554 62.333 80.6923C62.3554 80.6788 62.3733 80.6698 62.3957 80.6562C62.5034 80.5886 62.472 80.5841 62.3016 80.6427C62.1895 80.6111 62.0774 80.5796 61.9608 80.5525C61.7814 80.4624 61.768 80.3587 61.7859 80.2279C61.7366 80.5886 61.8756 80.9538 62.2567 81.062C62.5706 81.1476 63.0325 80.9538 63.0863 80.5886C63.1401 80.2009 63.1221 79.8087 62.8262 79.5156C62.6782 79.3714 62.454 79.2857 62.2478 79.2902C62.1133 79.2947 61.9563 79.3398 61.8397 79.4029C61.8083 79.421 61.6604 79.4841 61.7456 79.466C61.8666 79.466 61.9832 79.466 62.1043 79.466C62.0864 79.4615 62.0639 79.4525 62.046 79.448C62.1446 79.5066 62.2433 79.5652 62.3419 79.6238C62.3868 79.998 62.4271 80.0927 62.4675 79.9078C62.4854 79.8628 62.4944 79.8177 62.5034 79.7681C62.5258 79.6644 62.5347 79.5562 62.5258 79.448C62.5078 79.1505 62.3554 78.8664 62.0819 78.7357C61.8128 78.6004 61.49 78.6185 61.2658 78.8394C60.8936 79.2136 60.5753 79.6373 60.3197 80.0972C60.7367 80.2099 61.1537 80.3226 61.5752 80.4398C61.5797 80.0386 61.6111 79.6373 61.6828 79.2406C61.7456 78.88 61.5842 78.5103 61.212 78.4066C60.8802 78.3164 60.4452 78.5193 60.3825 78.88Z" fill="#727272"/>
<path d="M61.288 69.5702C61.0952 70.0346 61.0907 70.562 61.2387 71.0399C61.445 71.6981 62.3148 71.6666 62.5346 71.0399C62.6467 70.7153 62.8484 70.4583 63.104 70.2329C62.7229 70.0751 62.3373 69.9128 61.9561 69.7551C61.9696 69.985 61.9875 70.2149 62.001 70.4403C62.0279 70.837 62.2879 71.0715 62.6736 71.1166C62.8888 71.1436 63.0861 71.0715 63.2654 70.9543C63.3417 70.9047 63.4089 70.8461 63.4672 70.7784C63.4896 70.7469 63.5165 70.7198 63.539 70.6928C63.6197 70.6071 63.5524 70.6252 63.3327 70.7469C63.2206 70.7153 63.1085 70.6838 62.9919 70.6567C62.956 70.6161 62.9157 70.5756 62.8798 70.535C62.8484 70.4223 62.817 70.3096 62.7901 70.1924C62.7901 70.2104 62.7901 70.2284 62.7946 70.2465C62.826 70.1338 62.8574 70.021 62.8843 69.9038C62.8753 69.9174 62.8664 69.9354 62.8574 69.9489C62.4 70.6928 63.5659 71.3735 64.0187 70.6297C64.2878 70.1924 64.0636 69.6243 63.5928 69.453C63.3461 69.3628 63.095 69.3809 62.8664 69.5071C62.7722 69.5567 62.6915 69.6288 62.6153 69.7055C62.5973 69.7235 62.5839 69.746 62.5659 69.7641C62.4763 69.8542 62.5121 69.8542 62.6736 69.7641C62.8978 69.9895 63.122 70.2149 63.3461 70.4403C63.3327 70.2104 63.3148 69.9805 63.3013 69.7551C63.261 69.1554 62.6018 68.8804 62.1534 69.2772C61.723 69.6604 61.427 70.1383 61.2387 70.6793C61.6692 70.6793 62.1041 70.6793 62.5346 70.6793C62.4494 70.4042 62.4763 70.1924 62.5839 69.9309C62.7229 69.5928 62.4314 69.187 62.1131 69.0968C61.7274 68.9886 61.427 69.2321 61.288 69.5702Z" fill="#727272"/>
<path d="M60.7275 57.7178C60.7633 58.0964 60.8037 58.4797 60.8396 58.8584C60.8709 59.192 61.0682 59.4805 61.4225 59.5211C61.7453 59.5617 62.0771 59.3678 62.1623 59.0387C62.2341 58.7502 62.3327 58.4887 62.4762 58.2317C62.0906 58.2317 61.7005 58.2317 61.3149 58.2317C61.3821 58.3579 61.4494 58.4842 61.5122 58.6059C61.7588 59.0702 62.4134 59.0161 62.6735 58.6059C62.6959 58.5698 62.7273 58.5383 62.7273 58.5247C62.799 58.4616 62.7497 58.4661 62.5883 58.5383C62.5166 58.5788 62.4448 58.5879 62.3731 58.5743C62.2924 58.4932 62.2117 58.412 62.1309 58.3309C62.1265 58.3128 62.122 58.2948 62.1175 58.2768C62.3776 59.1018 63.6779 58.7502 63.4134 57.9161C63.2788 57.4923 62.9111 57.2263 62.4628 57.2399C62.0278 57.2534 61.7229 57.578 61.5077 57.9206C61.8933 57.9206 62.2834 57.9206 62.669 57.9206C62.6018 57.7944 62.5345 57.6682 62.4717 57.5464C62.2386 57.1046 61.548 57.1091 61.3104 57.5464C61.1176 57.9026 60.9651 58.2813 60.862 58.678C61.3014 58.7366 61.7408 58.7997 62.1847 58.8584C62.1489 58.4797 62.1085 58.0964 62.0726 57.7178C62.0368 57.3526 61.7902 57.0415 61.4001 57.0415C61.0638 57.0415 60.6916 57.3526 60.7275 57.7178Z" fill="#727272"/>
<path d="M57.3962 50.1573C57.5666 50.59 57.7774 50.9507 58.0733 51.3114C58.4141 51.7261 59.0553 51.4556 59.1988 51.0138C59.3019 50.6892 59.3468 50.3376 59.3154 49.9995C58.8984 50.1122 58.4814 50.2249 58.0599 50.3421C58.1899 50.5946 58.3738 50.8245 58.5935 51.0048C58.876 51.2347 59.2705 51.2798 59.5441 51.0048C59.7817 50.7659 59.8265 50.279 59.5441 50.0491C59.4633 49.9859 59.3871 49.9138 59.3243 49.8372C59.2571 49.7515 59.3647 49.9048 59.3064 49.8101C59.275 49.7605 59.2481 49.7109 59.2212 49.6613C59.0822 49.3908 58.7369 49.2691 58.4589 49.3458C58.1944 49.4179 57.9388 49.7064 57.9657 49.9995C57.9926 50.2835 57.9836 50.3962 57.8985 50.6532C58.2751 50.554 58.6473 50.4548 59.0239 50.3556C58.9656 50.288 58.9073 50.2023 58.8401 50.0851C58.8087 50.031 58.7773 49.9724 58.7459 49.9183C58.7369 49.9048 58.6652 49.7335 58.6876 49.8011C58.5531 49.463 58.2392 49.224 57.8581 49.3277C57.5442 49.4134 57.2617 49.8146 57.3962 50.1573Z" fill="#727272"/>
<path d="M64.189 49.6345C64.2428 49.9185 64.3505 50.1935 64.4984 50.446C64.6509 50.703 64.9692 50.8382 65.2562 50.7571C65.5611 50.6714 65.7225 50.4054 65.7494 50.1034C65.7808 49.7878 65.8122 49.4677 65.8436 49.1521C65.5073 49.346 65.171 49.5398 64.8302 49.7382C65.0365 49.8915 65.2428 50.0493 65.449 50.2025C65.7405 50.4189 66.2023 50.2521 66.3682 49.9591C66.57 49.6165 66.4176 49.2513 66.1261 49.0349C65.9198 48.8816 65.7136 48.7238 65.5073 48.5705C65.319 48.4308 65.0186 48.4578 64.8302 48.5705C64.6105 48.7013 64.5208 48.9087 64.4984 49.1566C64.467 49.4722 64.4357 49.7923 64.4043 50.1079C64.8213 49.9952 65.2383 49.8824 65.6598 49.7652C65.5522 49.5849 65.5253 49.4992 65.4849 49.2783C65.4176 48.9177 64.9872 48.7148 64.6554 48.805C64.2877 48.9041 64.1263 49.2738 64.189 49.6345Z" fill="#727272"/>
<path d="M67.1753 57.7492C67.2381 58.1234 67.3278 58.4841 67.4489 58.8447C67.5879 59.273 68.0363 59.4534 68.4353 59.2505C68.6819 59.1243 68.8389 58.8898 68.9017 58.6238C68.933 58.5021 68.9375 58.3714 68.9465 58.2406C68.9465 58.1955 68.951 58.1505 68.9555 58.1054C68.9465 58.2947 68.8209 58.4165 68.5743 58.4796C68.4622 58.448 68.3501 58.4165 68.2336 58.3894C68.7627 58.6509 69.1752 58.8267 69.7805 58.6915C70.6235 58.5021 70.2693 57.1947 69.4218 57.3886C69.2111 57.4382 69.09 57.3119 68.9106 57.2218C68.5968 57.0685 68.238 57.091 67.9645 57.3074C67.7583 57.4697 67.6641 57.6951 67.6282 57.9521C67.6148 58.0513 67.6103 58.146 67.6013 58.2451C67.5924 58.3308 67.5968 58.3353 67.6058 58.2677C67.561 58.421 67.6103 58.3578 67.7583 58.0873C68.0856 58.2226 68.4174 58.3578 68.7447 58.4931C68.6281 58.1324 68.5385 57.7718 68.4712 57.3976C68.4084 57.0369 67.969 56.834 67.6417 56.9242C67.265 57.0189 67.1126 57.3886 67.1753 57.7492Z" fill="#727272"/>
<path d="M68.7405 67.5325C68.6957 67.8752 68.6464 68.2178 68.6015 68.5604C68.5612 68.8625 68.6284 69.16 68.9109 69.3223C69.1441 69.4621 69.5476 69.4486 69.727 69.2186C69.8256 69.0879 69.9243 68.9797 70.0812 68.9256C69.7987 68.7092 69.5118 68.4928 69.2293 68.2719C69.2382 68.5424 69.2427 68.8129 69.2517 69.0834C69.2652 69.5342 69.6687 69.8408 70.1036 69.7371C70.3189 69.6875 70.4982 69.5793 70.6686 69.4441L70.8345 69.3133C70.8211 69.2953 70.6059 69.3088 70.5565 69.2547C70.4982 69.1555 70.4399 69.0563 70.3817 68.9572C70.3906 68.9797 70.3951 69.0022 70.4041 69.0248C70.6866 69.8408 71.9869 69.4891 71.6999 68.6641C71.543 68.2178 71.1843 67.9653 70.709 67.9789C70.5162 67.9834 70.3144 68.0465 70.1485 68.1457C70.014 68.2268 69.8884 68.3936 69.736 68.4297C70.0185 68.6461 70.3054 68.8625 70.5879 69.0834C70.5789 68.8129 70.5745 68.5424 70.5655 68.2719C70.5565 67.8571 70.1395 67.4739 69.7135 67.6182C69.3414 67.7489 69.0096 67.9473 68.7674 68.2629C69.1441 68.4838 69.5163 68.7002 69.8929 68.9211C69.9377 68.5785 69.9871 68.2358 70.0319 67.8932C70.0812 67.5325 69.9467 67.1674 69.5611 67.0592C69.2562 66.9735 68.7899 67.1674 68.7405 67.5325Z" fill="#727272"/>
<path d="M66.8078 78.7311C66.7136 79.1144 66.6194 79.4976 66.5298 79.8808C66.4446 80.2324 66.6374 80.6201 67.0006 80.7148C67.3234 80.8005 67.6328 80.7373 67.8974 80.5255C68.1081 80.3541 68.1843 80.0881 68.3771 79.9213C68.2785 79.9799 68.1798 80.0386 68.0812 80.0972C68.1126 80.0836 68.144 80.0701 68.1798 80.0566C68.0588 80.0566 67.9422 80.0566 67.8211 80.0566C67.8525 80.0611 67.8839 80.0701 67.9198 80.0746C67.7853 79.9709 67.6507 79.8672 67.5162 79.7635C67.5072 79.7094 67.5117 79.723 67.5252 79.8131C67.5566 79.8898 67.588 79.9664 67.6238 80.0431C67.7135 80.1918 67.8525 80.2955 68.005 80.3632C68.1664 80.4353 68.3457 80.4443 68.5206 80.4082C68.5789 80.4037 68.6372 80.3857 68.691 80.3632C68.9556 80.2775 68.9018 80.2504 68.5296 80.2865C68.4489 80.2054 68.3682 80.1242 68.2875 80.0431C68.2964 80.0566 68.3099 80.0746 68.3188 80.0881C68.2875 79.9754 68.2561 79.8627 68.2292 79.7455C68.2292 79.7635 68.2292 79.7861 68.2247 79.8041C68.1843 80.6742 69.5295 80.6742 69.5699 79.8041C69.5878 79.4344 69.3367 79.1234 68.9914 79.0152C68.83 78.9656 68.6507 78.9611 68.4847 79.0016C68.4265 79.0152 68.1978 79.0603 68.265 79.0693C68.3771 79.1008 68.4892 79.1324 68.6058 79.1594C68.5834 79.1459 68.5655 79.1279 68.543 79.1143C68.6237 79.1955 68.7045 79.2766 68.7852 79.3578C68.7538 79.2947 68.682 79.0557 68.5699 78.9385C68.3906 78.7582 68.0633 78.677 67.8211 78.7447C67.6238 78.7988 67.4534 78.916 67.3189 79.0648C67.2472 79.1459 67.1844 79.2361 67.1306 79.3307C67.1127 79.3623 67.0992 79.3939 67.0813 79.4209C66.9557 79.5922 67.0499 79.5877 67.3638 79.4029C67.5207 79.6824 67.6776 79.9574 67.8346 80.2369C67.9287 79.8537 68.0229 79.4705 68.1126 79.0873C68.3099 78.2442 67.014 77.8836 66.8078 78.7311Z" fill="#727272"/>
<path d="M65.382 86.864C65.4806 86.9406 65.5793 87.0172 65.6779 87.0939C65.9649 87.3193 66.4312 87.139 66.5971 86.8504C66.7989 86.5033 66.6464 86.1471 66.355 85.9262C66.2563 85.8496 66.1577 85.7729 66.059 85.6963C65.7721 85.4709 65.3057 85.6512 65.1398 85.9398C64.9381 86.2869 65.095 86.6385 65.382 86.864Z" fill="#727272"/>
</g>
<mask id="mask1_101_80" style="mask-type:luminance" maskUnits="userSpaceOnUse" x="16" y="0" width="61" height="46">
<path d="M77 0H16V46H77V0Z" fill="white"/>
</mask>
<g mask="url(#mask1_101_80)">
<path d="M35.2989 44.7374C35.8581 40.1054 32.625 36.647 29.18 33.9798C27.1734 32.4239 25.2119 31.1259 23.9043 28.8988C23.2369 27.7564 22.5966 26.4672 22.2223 25.2003C21.4919 22.7332 22.7544 18.8569 25.8793 21.7019C27.6784 23.3422 28.0933 25.4581 29.4686 27.2807C30.2441 28.312 31.4346 28.8632 32.6746 28.2053C36.4037 26.2316 33.5178 19.3858 32.6836 16.6653C31.6735 13.3714 31.1415 10.2019 32.8414 7.03235C33.4006 5.99215 34.0273 4.92083 34.7443 3.98287C35.2087 3.37831 35.7994 2.72485 36.4623 2.30699C37.8331 1.43571 38.6582 1.43571 40.1733 1.89802C41.7876 2.39145 41.8011 2.47591 42.1303 4.0051C42.2836 4.7119 42.3467 5.48983 42.3828 6.21886C42.4595 7.76138 42.3332 9.31724 42.0131 10.8331C41.4133 13.7092 39.6863 16.2519 39.3076 19.1725C39.028 21.3196 39.2219 28.1431 42.8112 27.503C47.0182 26.7517 46.7161 20.0927 50.9096 19.2036C54.3997 18.4612 56.1042 22.2442 54.6252 24.8402C53.8226 26.2538 52.4879 27.3474 51.2027 28.312C48.9121 30.0323 46.1119 30.9303 43.8618 32.6684C39.79 35.8246 41.1428 40.7855 42.8157 44.853C43.1404 45.6398 44.448 45.2931 44.1188 44.4974C42.9916 41.7546 41.5757 38.3984 43.0998 35.5179C44.5111 32.8507 48.2357 31.9172 50.6391 30.3435C53.8857 28.2187 58.5437 24.2179 55.7931 20.0082C53.4934 16.4831 49.0383 17.6611 46.9371 20.6128C46.3013 21.5063 45.8098 22.4887 45.2461 23.4266C44.9891 23.8534 44.7321 24.2846 44.43 24.6846C44.2135 24.9425 43.9971 25.1959 43.7807 25.4537C42.0717 25.8271 41.1879 25.3781 41.1293 24.0979C39.4158 20.5061 41.49 16.8254 42.6534 13.5136C43.5191 11.0509 43.8889 8.42817 43.704 5.82767C43.5777 4.02732 43.3884 1.5913 41.6704 0.515535C40.1598 -0.431314 37.8376 0.111013 36.3541 0.848933C34.1446 1.95137 32.7918 4.2896 31.6735 6.37C28.8012 11.7133 31.7006 16.4208 32.7693 21.8041C32.9091 22.5198 33.2653 24.089 33.0263 24.8847C32.2958 25.5426 31.5653 26.1961 30.8303 26.854C30.411 26.325 30.0953 25.7471 29.8744 25.1114C29.4505 24.1823 29.0041 23.3155 28.3864 22.4887C27.4124 21.1817 25.5726 19.0347 23.6923 19.1414C21.8661 19.248 20.7929 21.1506 20.599 22.7376C20.3104 25.0847 21.5865 27.5874 22.7409 29.5789C25.9424 35.0956 34.866 37.1271 33.9462 44.7463C33.847 45.5865 35.1997 45.582 35.2989 44.7374Z" fill="#46A358"/>
<path d="M46.9866 22.573C47.9606 17.7054 46.1209 13.2557 45.7376 8.45031C45.5076 5.57865 46.7477 0.986648 50.6887 2.29357C53.6241 3.26709 54.7379 6.71664 54.5395 9.47718C54.3952 11.4953 53.4122 17.4165 57.3532 16.8653C60.7351 16.3941 62.4801 10.8374 64.1215 8.48143C65.5283 6.46326 68.6351 3.51603 71.3677 4.33841C75.6965 5.64088 72.9234 10.7619 70.9303 12.7756C67.571 16.1674 63.9907 19.1679 61.0282 22.9464C59.3102 25.138 57.8222 28.7387 61.6324 29.7211C63.0979 30.0989 64.5093 29.5966 65.8304 29.0009C66.8946 28.5209 67.9092 27.9474 69.041 27.6318C71.1062 27.0539 73.5005 27.5073 72.1343 30.0367C68.9373 35.9623 61.6189 31.5926 56.8978 34.0775C52.8936 36.189 51.9602 40.8566 52.339 44.9507C52.4157 45.7997 53.7729 45.8086 53.6918 44.9507C53.4257 42.0968 53.6557 39.0118 55.6578 36.7491C58.246 33.8241 61.7 34.891 65.127 34.8243C68.6261 34.7576 73.1308 33.0862 73.8568 29.2321C74.6504 25.0091 69.7715 25.827 67.2689 26.845C66.1641 27.294 65.1315 27.9919 63.9772 28.3208C63.0618 28.5831 61.6144 28.7253 60.8929 27.8763C60.194 27.0495 60.7576 25.6581 61.1905 24.9557C62.7732 22.3774 65.1992 20.0259 67.3545 17.9055C70.3261 14.9805 75.3944 11.8776 74.957 7.10783C74.6233 3.45824 71.2054 2.1202 68.0535 3.48935C66.1596 4.31174 64.5949 5.61865 63.3594 7.25008C61.7451 9.37938 60.8839 12.3044 58.9585 14.1803C58.2641 14.856 57.5832 16.2918 56.032 14.8827C55.3421 14.2559 55.5495 12.5844 55.6217 11.7265C55.7164 10.6018 55.9599 9.50385 55.9238 8.3703C55.8652 6.45437 55.2204 4.51177 53.9623 3.02704C51.3019 -0.102451 46.7341 0.0353541 44.9665 3.96056C43.9114 6.30768 44.3758 8.99264 44.8177 11.4287C45.4671 15.0249 46.4185 18.5545 45.6835 22.2174C45.5167 23.0576 46.8198 23.4176 46.9866 22.573Z" fill="#46A358"/>
<path d="M46.6846 31.0059C46.0488 35.589 45.0072 40.0787 43.5552 44.4796C43.2847 45.2975 44.5923 45.6487 44.8584 44.8352C46.3103 40.4344 47.3519 35.9446 47.9877 31.3615C48.105 30.5169 46.8018 30.1568 46.6846 31.0059Z" fill="#46A358"/>
<path d="M30.5057 43.9728C30.3299 40.4432 27.8453 38.0605 24.9865 36.2468C23.1333 35.0688 21.1041 34.0864 19.5124 32.5528C18.827 31.8949 17.5509 30.6191 17.4833 29.5967C17.2533 26.1871 21.4784 28.841 22.4163 29.6278C23.0746 30.1834 24.0351 29.241 23.3722 28.6854C21.8978 27.4451 19.2509 25.8315 17.2263 26.765C15.5939 27.5163 15.8645 29.3788 16.4913 30.7213C19.1291 36.4247 28.8058 37.0781 29.153 43.9728C29.1936 44.8263 30.5508 44.8307 30.5057 43.9728Z" fill="#46A358"/>
<path d="M60.8388 45.293C62.5253 42.7859 64.7483 40.7366 67.4718 39.3585C69.9519 38.105 73.027 37.8871 75.223 36.1135C77.7436 34.0775 77.8744 29.0855 73.7034 29.2144C72.8331 29.241 72.8331 30.5746 73.7034 30.548C75.3492 30.7702 76.0166 31.6682 75.7145 33.2374C75.3763 34.1398 74.8037 34.851 73.9966 35.3667C73.0091 36.0557 71.8096 36.3713 70.6733 36.7269C69.2259 37.1803 67.8145 37.656 66.4753 38.3672C63.6886 39.852 61.4115 42.0302 59.6665 44.6218C59.184 45.3375 60.3564 46.0043 60.8388 45.293Z" fill="#46A358"/>
<path d="M64.5139 33.5621C58.7827 34.6289 56.6679 40.2522 55.3107 45.1732C55.0807 46.0045 56.3884 46.3556 56.6138 45.5288C57.8493 41.0524 59.6305 35.8247 64.8746 34.8512C65.7269 34.6867 65.3661 33.402 64.5139 33.5621Z" fill="#46A358"/>
<path d="M34.2933 13.2647C33.6214 10.602 34.4601 7.68585 36.6335 5.89884C37.0709 5.52099 37.5669 5.23205 38.1125 5.03201C39.6141 5.34762 40.313 6.13889 40.2093 7.4058C40.2364 8.14372 40.0921 8.87275 39.9162 9.584C39.56 11.0198 38.9332 12.3845 38.4688 13.7893C37.2738 17.4077 35.5558 23.3244 38.7844 26.405C39.0955 26.7029 39.578 26.2317 39.2624 25.9338C36.4306 23.2355 37.8826 18.0479 38.852 14.8161C39.6907 12.0156 41.9679 8.29486 40.4303 5.35207C39.2308 3.05829 36.4802 4.92087 35.3123 6.26336C33.5853 8.25041 33.0037 10.922 33.6394 13.4425C33.7477 13.8604 34.397 13.6826 34.2933 13.2647Z" fill="#46A358"/>
<path d="M48.5877 24.0623C48.9755 23.2132 49.7601 22.013 50.8107 21.8707C52.4115 21.6529 53.2367 23.6355 52.3799 24.9469C51.5728 26.1827 50.0352 27.0451 48.7095 27.5741C46.5045 28.4498 45.0255 29.6589 43.4247 31.3881C43.1316 31.7038 43.6096 32.1794 43.9027 31.8593C44.8722 30.8058 45.8642 29.7123 47.1268 28.9832C48.1323 28.4009 49.3002 28.1742 50.3102 27.6052C51.5412 26.9073 53.5343 25.4003 53.6786 23.88C53.7958 22.6531 52.4837 21.2306 51.2572 21.155C49.7782 21.0617 48.5426 22.5553 48.006 23.7289C47.8257 24.1112 48.4119 24.4535 48.5877 24.0623Z" fill="#46A358"/>
<path d="M23.3002 24.8356C23.449 23.6665 23.8954 23.2353 24.6349 23.5509C24.8964 23.5554 25.1129 23.6487 25.2933 23.831C25.6495 24.0621 25.884 24.4044 26.0959 24.7645C26.4747 25.4091 26.6505 26.1603 26.9301 26.8449C27.2863 27.7251 27.7553 28.4408 28.5624 28.9653C28.9276 29.2053 29.2658 28.6275 28.9051 28.3874C26.9211 27.0894 27.4757 23.7198 24.9956 22.9019C23.5076 22.4129 22.0106 23.6843 22.7185 25.169C22.9034 25.5602 23.4851 25.2224 23.3002 24.8356Z" fill="#46A358"/>
<path d="M47.5323 7.58343C47.1806 5.66305 49.2322 4.13387 50.8014 5.53414C51.6672 6.30762 52.0009 7.73012 52.0054 8.84145C52.0144 10.3484 51.3155 11.6954 51.6131 13.2068C51.6942 13.6291 52.3481 13.4513 52.2669 13.029C51.8926 11.1308 52.9658 9.31265 52.4833 7.34338C52.1948 6.16537 51.6086 4.85401 50.373 4.40948C48.1455 3.61377 46.5087 5.73863 46.8784 7.75679C46.9596 8.1791 47.6089 8.00128 47.5323 7.58343Z" fill="#46A358"/>
<path d="M47.194 11.98C48.2942 14.2605 48.8353 16.2609 48.7542 18.7902C48.7406 19.2214 49.417 19.217 49.4305 18.7902C49.5162 16.1319 48.93 14.0293 47.7802 11.6466C47.5908 11.2599 47.0091 11.5977 47.194 11.98Z" fill="#46A358"/>
<path d="M64.7349 10.0729C65.3887 8.60153 66.6242 7.67246 68.0537 6.97455C68.464 6.76117 68.8878 6.5878 69.3297 6.45C71.2371 7.09012 71.7196 7.97474 70.7772 9.11274C70.3263 9.81065 69.6724 10.4374 69.1088 11.0509C66.9624 13.3847 64.6447 15.5451 62.1962 17.5633C61.8626 17.8389 62.3405 18.3101 62.6742 18.0345C64.8882 16.2119 66.994 14.2737 68.96 12.1933C70.1414 10.9442 72.4095 9.09051 71.9135 7.1168C70.926 3.20493 64.9784 7.86805 64.1487 9.73952C63.9774 10.1263 64.5636 10.4641 64.7349 10.0729Z" fill="#46A358"/>
<path d="M60.9157 19.9858C58.7558 21.5506 57.4436 23.831 57.1956 26.4582C57.155 26.885 57.8314 26.8805 57.872 26.4582C58.0975 24.0844 59.3059 21.9729 61.2584 20.5593C61.6056 20.3104 61.2674 19.728 60.9157 19.9858Z" fill="#46A358"/>
<path d="M65.1948 31.108C65.6367 30.8457 66.0786 30.5701 66.543 30.3434C66.8947 30.1522 67.2645 30.0055 67.6523 29.9033C68.3783 29.6054 68.6218 30.1611 68.3783 31.5703C67.9003 32.4993 65.312 32.5349 64.5094 32.486C62.5028 32.3704 60.6135 31.8281 58.6339 32.4282C58.2191 32.5527 58.395 33.1972 58.8143 33.0728C61.1906 32.3482 63.5038 33.4017 65.9027 33.1395C67.2059 32.9928 69.0501 32.4015 69.6994 31.1569C70.0602 30.4634 69.9745 29.5477 69.1854 29.1698C67.8913 28.5519 65.8712 29.9211 64.8521 30.5301C64.4823 30.7568 64.8205 31.3347 65.1948 31.108Z" fill="#46A358"/>
<path d="M55.1393 33.5884C51.6222 36.4023 50.3415 40.6698 49.9853 44.9728C49.9493 45.3996 50.6256 45.3996 50.6617 44.9728C51.0044 40.8343 52.2354 36.7624 55.6173 34.0596C55.9555 33.7885 55.473 33.3217 55.1393 33.5884Z" fill="#46A358"/>
<path d="M40.0023 34.722C38.9562 36.5091 38.9878 38.4561 39.2177 40.4565C39.4116 42.1368 39.6326 43.786 40.8095 45.0929C41.0981 45.413 41.576 44.9418 41.2874 44.6217C40.1331 43.3415 39.9888 41.5634 39.8355 39.9275C39.6732 38.2249 39.6957 36.5757 40.5885 35.0554C40.805 34.6865 40.2233 34.3531 40.0023 34.722Z" fill="#46A358"/>
<path d="M21.3429 30.3301C19.386 30.3568 20.1615 32.3883 21.2077 33.1173C22.5153 34.0286 24.0033 34.6376 25.3922 35.4066C27.029 36.3135 27.6873 37.8427 28.9454 39.1185C29.2475 39.4252 29.7255 38.954 29.4234 38.6473C28.1743 37.3804 27.5701 35.8645 25.9603 34.9577C25.1487 34.4998 24.2964 34.1131 23.4803 33.673C23.0564 33.4463 22.6326 33.2195 22.2267 32.9662C22.0644 32.8684 21.8976 32.7661 21.7352 32.6683C20.9281 32.366 20.8018 31.8104 21.3474 31.0013C21.7758 30.9924 21.7758 30.3257 21.3429 30.3301Z" fill="#46A358"/>
<path d="M72.2381 33.4018C72.2606 34.2909 71.8458 34.7754 70.9846 34.8599C70.5697 35.0243 70.1594 35.1844 69.7445 35.3488C69.1268 35.5933 68.5045 35.8378 67.8868 36.0823C66.4438 36.6513 64.9964 37.2248 63.5534 37.7938C63.1521 37.9493 63.328 38.5984 63.7338 38.4383C65.3842 37.7849 67.0345 37.1359 68.6849 36.4824C69.9069 35.9979 71.467 35.6511 72.5537 34.8954C73.4962 34.2375 73.5232 32.8728 72.2336 32.735C71.8052 32.6861 71.8097 33.3574 72.2381 33.4018Z" fill="#46A358"/>
<path d="M62.0022 38.7185C60.1895 40.4078 58.7601 42.3904 57.75 44.6397C57.5742 45.0264 58.1558 45.3687 58.3362 44.9775C59.3237 42.7816 60.708 40.8434 62.4846 39.1942C62.7958 38.8964 62.3178 38.4252 62.0022 38.7185Z" fill="#46A358"/>
<path d="M30.5507 41.6345C31.0692 42.3902 31.4029 43.2036 31.5607 44.1016C31.6329 44.5239 32.2867 44.3461 32.2146 43.9238C32.0477 42.9769 31.6825 42.0923 31.1369 41.2966C30.8934 40.9454 30.3072 41.2788 30.5507 41.6345Z" fill="#46A358"/>
</g>
</svg>
