<svg width="83" height="90" viewBox="0 0 83 90" fill="none" xmlns="http://www.w3.org/2000/svg">
<path d="M37 90C57.4345 90 74 73.4345 74 53C74 32.5655 57.4345 16 37 16C16.5655 16 0 32.5655 0 53C0 73.4345 16.5655 90 37 90Z" fill="#46A358" fill-opacity="0.13"/>
<mask id="mask0_101_224" style="mask-type:luminance" maskUnits="userSpaceOnUse" x="15" y="38" width="68" height="49">
<path d="M83 38H15V87H83V38Z" fill="white"/>
</mask>
<g mask="url(#mask0_101_224)">
<path d="M22.2489 40.7766C39.0217 39.0238 55.9383 41.7144 72.6699 39.29C73.4516 39.1753 73.1183 37.9918 72.3408 38.1064C55.7285 40.5104 38.9065 37.8075 22.2489 39.548C21.4673 39.6299 21.4591 40.8585 22.2489 40.7766Z" fill="#727272"/>
<path d="M22.0846 39.5727C20.4472 40.0806 20.6529 42.2101 21.521 43.3404C22.9444 45.1915 26.141 45.2324 28.2268 45.0358C29.0125 44.9621 29.0166 43.7335 28.2268 43.8073C26.8774 43.9342 25.4786 43.9219 24.1663 43.537C23.4833 43.3363 22.7634 43.0537 22.3726 42.4149C22.171 42.0831 21.7843 40.9528 22.4137 40.7604C23.1707 40.5228 22.8457 39.3352 22.0846 39.5727Z" fill="#727272"/>
<path d="M69.7821 39.6753C70.6501 39.622 71.4894 39.4746 72.3533 39.3599C73.7233 39.1757 74.4268 39.5442 74.6654 40.9776C74.8629 42.1693 74.11 42.5174 73.0486 42.8532C72.5467 43.0129 72.0201 43.1112 71.5017 43.2136C70.1153 43.4839 68.7248 43.619 67.3137 43.6682C66.5238 43.6968 66.5197 44.9254 67.3137 44.8968C69.7204 44.8108 76.4797 44.7207 76.2164 40.9325C76.1505 39.9865 75.2331 38.6801 74.3733 38.2542C73.0897 37.6154 71.0903 38.3648 69.778 38.4467C68.9922 38.4958 68.9881 39.7244 69.7821 39.6753Z" fill="#727272"/>
<path d="M24.055 44.7738C23.8863 47.3743 20.9242 48.8445 19.3527 50.63C18.1185 52.0347 17.1476 53.6523 16.4441 55.3764C14.9302 59.0704 14.6422 63.2107 15.4115 67.1053C16.9954 75.0952 23.0594 81.6886 30.6332 84.5184C31.3779 84.7969 31.6988 83.6093 30.9624 83.3349C23.0964 80.3945 16.983 73.0271 16.3001 64.5785C15.9751 60.5651 16.8267 56.388 19.0771 53.0094C20.9448 50.2082 25.0547 48.4145 25.2892 44.7738C25.3385 43.9875 24.1043 43.9875 24.055 44.7738Z" fill="#727272"/>
<path d="M70.8229 44.2495C70.8229 47.4807 73.1803 49.5079 75.5787 51.3139C77.6398 52.8619 79.236 54.369 80.2522 56.7975C81.1367 58.9065 81.6263 61.1835 81.7373 63.4646C82.1405 71.8558 77.2449 79.645 69.7204 83.3103C69.0087 83.6584 69.6299 84.7191 70.3416 84.371C77.3313 80.9678 82.2598 74.0509 82.918 66.3026C83.2513 62.3834 82.5684 58.067 80.569 54.6311C78.368 50.8429 72.0571 49.1065 72.053 44.2495C72.0571 43.4591 70.8229 43.4591 70.8229 44.2495Z" fill="#727272"/>
<path d="M30.267 83.6174C29.4689 85.3825 30.9005 86.906 32.6778 86.9879C34.6072 87.0821 36.6436 86.6357 38.5772 86.5538C40.8193 86.4555 43.0615 86.4514 45.3036 86.4841C53.6714 86.6111 62.0351 87.2459 70.3659 86.1156C70.6498 86.0787 70.7938 85.7675 70.8185 85.5217C70.8843 84.8337 70.8267 84.3259 70.6251 83.6789C70.3906 82.9253 69.2017 83.2489 69.4362 84.0065C69.646 84.502 69.6954 85.0098 69.5843 85.5217C69.7365 85.3252 69.8846 85.1286 70.0368 84.9279C63.5408 85.8084 56.9873 85.5873 50.4543 85.3825C47.2865 85.2842 44.1146 85.1941 40.9469 85.2474C39.4987 85.2719 38.0506 85.3293 36.6025 85.4276C35.8126 85.4808 35.0268 85.5545 34.2411 85.6323C33.661 85.6897 30.4439 86.1852 31.3284 84.2276C31.6534 83.5192 30.592 82.8967 30.267 83.6174Z" fill="#727272"/>
<path d="M22.0804 51.2237C17.0531 57.3789 16.6622 65.9708 21.1753 72.5233C21.3974 72.8468 21.9323 72.5396 21.7101 72.212C17.3616 65.9012 17.6619 57.6042 22.5206 51.6537C22.7633 51.3548 22.3313 50.9166 22.0804 51.2237Z" fill="#727272"/>
<path d="M22.4136 74.8043C22.8168 75.3858 23.2775 75.9223 23.7918 76.4096C24.0798 76.6799 24.5158 76.2499 24.2279 75.9755C23.7506 75.5251 23.3228 75.0336 22.9443 74.4971C22.7221 74.1736 22.1873 74.4767 22.4136 74.8043Z" fill="#727272"/>
<path d="M25.8652 78.3389C26.2643 78.3389 26.2643 77.7246 25.8652 77.7246C25.4662 77.7246 25.4662 78.3389 25.8652 78.3389Z" fill="#727272"/>
<path d="M69.6297 44.2822C69.3129 45.4617 69.0414 46.6493 69.5063 47.8287C69.9382 48.9222 70.8145 49.9091 71.5591 50.8142C73.3446 52.9765 76.9978 55.1593 77.1706 58.1734C77.1912 58.5666 77.8083 58.5707 77.7877 58.1734C77.6602 55.9169 75.9899 54.4713 74.4513 53.0052C73.4598 52.0592 72.5259 51.0558 71.6702 49.9829C71.0943 49.258 70.4443 48.4922 70.111 47.6199C69.7037 46.5592 69.9382 45.5149 70.2221 44.4501C70.3249 44.0652 69.7284 43.9014 69.6297 44.2822Z" fill="#727272"/>
<path d="M77.438 59.599C77.5244 60.3853 77.6108 61.1716 77.6972 61.9579C77.7383 62.347 78.3595 62.3511 78.3143 61.9579C78.2279 61.1716 78.1415 60.3853 78.0551 59.599C78.014 59.21 77.3969 59.2059 77.438 59.599Z" fill="#727272"/>
<path d="M77.4956 63.5752C77.5409 63.8046 77.5038 64.0216 77.4175 64.2346C77.3557 64.3902 77.4874 64.5704 77.6314 64.6113C77.8083 64.6605 77.9482 64.5499 78.0099 64.3984C78.1374 64.0789 78.1539 63.7472 78.088 63.4114C78.0181 63.0264 77.4216 63.1903 77.4956 63.5752Z" fill="#727272"/>
<path d="M50.7423 59.0827C52.2151 56.2979 54.9879 54.4755 58.2091 54.6352C62.0434 54.8236 66.0751 58.1449 63.3887 62.0682C61.813 64.3656 58.9826 65.8522 56.8968 67.6623C54.5806 69.6731 52.4619 71.8886 50.5078 74.2557C50.0059 74.8618 50.8739 75.7341 51.3799 75.1239C54.3585 71.516 57.7278 68.465 61.4304 65.6147C63.9029 63.7063 66.6387 60.8109 65.1371 57.4569C63.8947 54.6803 60.4636 53.3166 57.5715 53.3985C54.1651 53.4967 51.2442 55.4952 49.6726 58.4602C49.3065 59.1605 50.372 59.783 50.7423 59.0827Z" fill="#727272"/>
<path d="M50.4505 58.1285C47.8134 55.1758 44.5222 52.133 40.2519 52.3541C37.0842 52.518 34.3566 54.9096 33.8999 58.0589C33.3363 61.8961 36.2161 65.2625 39.0219 67.4862C42.4694 70.2177 47.6694 71.1637 50.2489 74.8659C50.6973 75.5129 51.767 74.8986 51.3144 74.2475C49.7059 71.9378 47.365 70.7501 44.8802 69.5543C41.7206 68.035 38.6063 66.1552 36.574 63.223C34.3072 59.9591 34.6816 54.9669 39.0753 53.7711C43.3744 52.604 46.9947 56.1095 49.5742 58.9967C50.1049 59.5905 50.9771 58.7182 50.4505 58.1285Z" fill="#727272"/>
</g>
<mask id="mask1_101_224" style="mask-type:luminance" maskUnits="userSpaceOnUse" x="31" y="0" width="35" height="39">
<path d="M66 0H31V39H66V0Z" fill="white"/>
</mask>
<g mask="url(#mask1_101_224)">
<path d="M46.472 12.6295C45.2831 14.7825 43.4689 16.5075 41.1405 17.4005C40.2314 17.7512 39.0343 17.7308 39.1536 16.4871C39.2276 15.7123 40.0668 15.0395 40.6757 14.6765C41.7124 14.0567 43.0411 13.8528 44.1559 13.3716C44.88 13.0576 44.2547 12.0015 43.5348 12.3155C41.5437 13.1759 39.3634 13.3798 38.2321 15.4676C37.6274 16.5849 37.4299 18.1386 38.7916 18.7747C40.2684 19.4639 42.3006 18.3506 43.5265 17.5677C45.2296 16.483 46.5666 15.0027 47.5333 13.2452C47.92 12.5561 46.8546 11.9362 46.472 12.6295Z" fill="#46A358"/>
<path d="M43.8967 12.1192C42.3992 12.2823 40.9142 12.2905 39.4291 12.0132C38.8861 11.9113 38.3472 11.7726 37.8206 11.6054C37.3763 11.4749 36.9485 11.3159 36.5248 11.1243C35.8954 10.3332 35.9571 9.8928 36.7181 9.79494C38.9478 8.09042 42.4321 9.88058 44.6207 10.7083C45.3653 10.9897 45.6861 9.80718 44.9498 9.52989C43.0451 8.80812 40.9553 7.72342 38.8614 7.95585C37.6602 8.08634 34.8916 8.60422 34.5707 10.1007C33.8302 13.5669 42.1072 13.5424 43.8967 13.3467C44.6783 13.2569 44.6865 12.0336 43.8967 12.1192Z" fill="#46A358"/>
<path d="M45.353 9.5501C43.4812 8.07802 41.8192 5.7863 41.9097 3.30292C41.9509 2.19784 42.6584 1.72889 43.6828 2.22638C44.2463 2.4996 44.6372 3.1969 44.9457 3.72293C45.6615 4.95443 45.9618 6.36126 46.2251 7.74364C46.3732 8.51434 47.5621 8.18812 47.414 7.41741C47.019 5.35405 46.4554 3.20505 44.9169 1.66365C44.0078 0.754304 42.4939 -0.289611 41.4243 0.933727C38.9231 3.79226 42.1977 8.61628 44.4808 10.4146C45.0979 10.8998 45.9782 10.0394 45.353 9.5501Z" fill="#46A358"/>
<path d="M47.3849 7.75612C47.6564 5.79062 48.5203 2.05128 50.7993 1.41515C52.9179 0.827951 52.7081 4.20436 52.1157 5.32167C51.5192 6.44714 50.3468 7.50329 49.4952 8.44526C48.9687 9.02839 49.8367 9.89696 50.3673 9.30975C51.5891 7.95593 53.4157 6.40229 53.6789 4.49796C53.8846 3.0218 53.7735 0.791251 52.1322 0.138804C50.6347 -0.456553 49.1538 0.897273 48.3022 1.96157C47.0475 3.52745 46.4634 5.46847 46.1919 7.42174C46.0849 8.20059 47.2738 8.53497 47.3849 7.75612Z" fill="#46A358"/>
<path d="M50.4538 9.46495C51.8895 8.27424 54.5552 7.44644 56.3077 8.5189C58.5785 9.91351 55.3615 10.7494 54.3002 10.8187C53.1648 10.8962 52.0294 10.8269 50.9022 10.6964C50.1165 10.6067 50.1206 11.83 50.9022 11.9197C52.7452 12.1318 55.234 12.405 56.9495 11.4997C58.0149 10.937 58.7801 9.57505 58.126 8.42919C57.3937 7.14469 55.3327 6.83478 53.9958 6.87148C52.3379 6.92041 50.8446 7.55654 49.5858 8.60046C48.9728 9.10611 49.8491 9.9706 50.4538 9.46495Z" fill="#46A358"/>
<path d="M50.5854 11.8788C51.8565 12.3437 53.1195 13.0451 53.8435 14.2276C54.7485 15.7119 54.7691 18.4441 52.1363 17.9343C49.8202 17.4858 48.1459 15.0473 47.6728 12.9309C47.5 12.1643 46.3112 12.4864 46.4839 13.2571C46.9035 15.141 47.9526 16.8048 49.524 17.9588C50.7582 18.8681 52.9261 19.9528 54.3783 18.9212C55.8716 17.8609 55.8716 15.6671 55.1969 14.1583C54.3988 12.3804 52.6999 11.3487 50.9227 10.6963C50.1658 10.4271 49.8449 11.6097 50.5854 11.8788Z" fill="#46A358"/>
<path d="M38.1043 15.247C34.5006 17.4001 31.8431 19.7979 31.2137 24.1122C30.5267 28.7975 31.6251 33.695 32.6288 38.258C32.7975 39.0287 33.9864 38.7025 33.8177 37.9318C32.9291 33.8948 32.02 29.711 32.2956 25.5557C32.5959 21.0253 34.9655 18.5501 38.7213 16.3073C39.4042 15.8995 38.7872 14.8393 38.1043 15.247Z" fill="#46A358"/>
<path d="M54.008 13.8648C59.0474 14.2562 62.614 18.2688 63.9675 22.8645C65.4402 27.8679 64.6175 33.1364 63.8153 38.1766C63.6919 38.9473 64.8807 39.2776 65.0042 38.5028C65.9421 32.59 66.8841 26.3102 64.4611 20.6094C62.6264 16.2911 58.817 13.0166 54.008 12.6414C53.2141 12.5803 53.2182 13.8036 54.008 13.8648Z" fill="#46A358"/>
<path d="M39.3263 17.7833C33.2996 22.1302 35.2536 31.9577 36.4713 38.0662C36.6235 38.8369 37.8165 38.5107 37.6602 37.74C37.0225 34.543 36.4302 31.3093 36.4919 28.039C36.5536 24.8583 37.1583 20.8498 39.9474 18.8395C40.5851 18.3787 39.9721 17.3184 39.3263 17.7833Z" fill="#46A358"/>
<path d="M46.0931 13.8283C43.8511 17.2496 42.4031 21.0745 41.8765 25.1278C41.6009 27.2524 41.5803 29.4055 41.8354 31.5341C42.111 33.8584 42.8638 36.093 43.1435 38.4174C43.234 39.1881 44.4723 39.2003 44.3777 38.4174C43.8923 34.36 42.6417 30.6247 42.9708 26.4735C43.3122 22.1633 44.7932 18.061 47.1627 14.444C47.5905 13.7834 46.5251 13.1718 46.0931 13.8283Z" fill="#46A358"/>
<path d="M49.1088 17.6081C50.9477 20.6175 51.3344 24.0224 51.6552 27.46C51.9885 31.0362 52.26 34.6165 52.4903 38.2009C52.5397 38.9838 53.7738 38.9879 53.7245 38.2009C53.4653 34.1435 53.1732 30.0861 52.7536 26.0409C52.4245 22.8643 51.8692 19.753 50.1743 16.9882C49.7629 16.3195 48.6933 16.9311 49.1088 17.6081Z" fill="#46A358"/>
<path d="M54.7239 18.1789C59.319 23.9082 59.4712 31.2237 59.3067 38.2049C59.2902 38.9919 60.5243 38.9919 60.5408 38.2049C60.7136 30.8404 60.4174 23.3291 55.596 17.3144C55.1024 16.6986 54.2344 17.5713 54.7239 18.1789Z" fill="#46A358"/>
<path d="M46.9532 19.6717C46.8833 19.9449 46.8174 20.2141 46.7475 20.4873C46.6529 20.8706 47.2453 21.0337 47.344 20.6504C47.4139 20.3772 47.4798 20.108 47.5497 19.8348C47.6443 19.4556 47.0519 19.2925 46.9532 19.6717Z" fill="#46A358"/>
<path d="M48.2856 21.7957C48.2856 22.1015 48.2856 22.4074 48.2856 22.7132C48.2856 23.1087 48.9027 23.1087 48.9027 22.7132C48.9027 22.4074 48.9027 22.1015 48.9027 21.7957C48.9027 21.4001 48.2856 21.4001 48.2856 21.7957Z" fill="#46A358"/>
<path d="M45.3074 23.7331C45.2745 24.1735 45.2375 24.618 45.2046 25.0584C45.1758 25.4499 45.7928 25.4499 45.8216 25.0584C45.8545 24.618 45.8916 24.1735 45.9245 23.7331C45.9533 23.3416 45.3362 23.3416 45.3074 23.7331Z" fill="#46A358"/>
<path d="M49.3145 25.8738C49.3145 26.2816 49.3145 26.6894 49.3145 27.0972C49.3145 27.4927 49.9316 27.4927 49.9316 27.0972C49.9316 26.6894 49.9316 26.2816 49.9316 25.8738C49.9316 25.4783 49.3145 25.4783 49.3145 25.8738Z" fill="#46A358"/>
<path d="M46.9487 28.1164C46.9487 28.5568 46.9487 29.0013 46.9487 29.4417C46.9487 29.8373 47.5658 29.8373 47.5658 29.4417C47.5658 29.0013 47.5658 28.5568 47.5658 28.1164C47.5658 27.7209 46.9487 27.7209 46.9487 28.1164Z" fill="#46A358"/>
<path d="M45.6118 32.6023C45.6118 33.214 45.6118 33.8257 45.6118 34.4373C45.6118 34.8329 46.2289 34.8329 46.2289 34.4373C46.2289 33.8257 46.2289 33.214 46.2289 32.6023C46.2289 32.2068 45.6118 32.2068 45.6118 32.6023Z" fill="#46A358"/>
<path d="M43.7816 28.6019C43.8515 29.0097 43.9256 29.4175 43.9955 29.8252C44.0613 30.2126 44.6578 30.0495 44.592 29.6621C44.5221 29.2544 44.448 28.8466 44.3781 28.4388C44.3081 28.0555 43.7116 28.2186 43.7816 28.6019Z" fill="#46A358"/>
<path d="M48.4996 34.6413C48.5325 35.0491 48.5695 35.4569 48.6024 35.8647C48.6353 36.2561 49.2524 36.2561 49.2195 35.8647C49.1866 35.4569 49.1496 35.0491 49.1166 34.6413C49.0837 34.2499 48.4625 34.2458 48.4996 34.6413Z" fill="#46A358"/>
<path d="M50.347 30.0535C50.3799 30.4613 50.4169 30.869 50.4498 31.2768C50.4827 31.6642 51.0998 31.6683 51.0669 31.2768C51.034 30.869 50.9969 30.4613 50.964 30.0535C50.9311 29.662 50.3141 29.6579 50.347 30.0535Z" fill="#46A358"/>
<path d="M57.4306 16.401C57.9078 16.8129 58.385 17.2247 58.8622 17.6325C59.1625 17.8894 59.5985 17.4572 59.2982 17.2003C58.821 16.7884 58.3438 16.3766 57.8666 15.9688C57.5704 15.7119 57.1303 16.14 57.4306 16.401Z" fill="#46A358"/>
<path d="M57.6902 19.806C57.9576 20.2831 58.2291 20.7642 58.4965 21.2413C58.6898 21.5839 59.2246 21.2781 59.0312 20.9314C58.7638 20.4543 58.4923 19.9732 58.2249 19.4961C58.0275 19.1535 57.4968 19.4634 57.6902 19.806Z" fill="#46A358"/>
<path d="M60.1622 20.0058C60.4667 20.4176 60.7711 20.8295 61.0755 21.2372C61.3059 21.5512 61.8448 21.2454 61.6103 20.9273C61.3059 20.5155 61.0014 20.1036 60.697 19.6958C60.4625 19.3859 59.9277 19.6877 60.1622 20.0058Z" fill="#46A358"/>
<path d="M61.6846 25.3395C61.7875 26.0531 61.8944 26.7667 61.9973 27.4803C62.0549 27.8677 62.6473 27.7046 62.5938 27.3172C62.4909 26.6036 62.384 25.89 62.2811 25.1763C62.2194 24.789 61.627 24.9561 61.6846 25.3395Z" fill="#46A358"/>
<path d="M59.6114 23.5088C59.7142 23.8473 59.8171 24.1898 59.9199 24.5283C60.0351 24.9034 60.6275 24.7444 60.5164 24.3652C60.4136 24.0267 60.3107 23.6842 60.2079 23.3457C60.0927 22.9706 59.4962 23.1296 59.6114 23.5088Z" fill="#46A358"/>
<path d="M62.8815 31.1748C62.9268 31.6601 62.9186 32.1454 62.8404 32.6265C62.7787 33.0098 63.3711 33.177 63.4369 32.7896C63.5233 32.2514 63.5521 31.7172 63.5027 31.1748C63.4616 30.7875 62.8445 30.7834 62.8815 31.1748Z" fill="#46A358"/>
<path d="M61.4497 33.1121C61.4497 33.4873 61.4497 33.8583 61.4497 34.2335C61.4497 34.629 62.0668 34.629 62.0668 34.2335C62.0668 33.8583 62.0668 33.4873 62.0668 33.1121C62.0668 32.7166 61.4497 32.7166 61.4497 33.1121Z" fill="#46A358"/>
<path d="M62.0879 22.893C62.2566 23.3008 62.4293 23.7086 62.598 24.1164C62.6638 24.2713 62.8037 24.3773 62.9765 24.3284C63.1205 24.2917 63.2562 24.1041 63.1904 23.9532C63.0217 23.5455 62.8489 23.1377 62.6803 22.7299C62.6145 22.5749 62.4746 22.4689 62.3018 22.5179C62.1578 22.5546 62.0262 22.7421 62.0879 22.893Z" fill="#46A358"/>
<path d="M60.9355 29.9514C60.9355 30.1879 60.9355 30.4285 60.9355 30.665C60.9355 31.0606 61.5526 31.0606 61.5526 30.665C61.5526 30.4285 61.5526 30.1879 61.5526 29.9514C61.5526 29.5559 60.9355 29.5559 60.9355 29.9514Z" fill="#46A358"/>
<path d="M62.1699 36.7819C62.1534 37.0714 62.0835 37.3487 61.9765 37.6179C61.9148 37.7728 62.0464 37.9522 62.1904 37.993C62.3673 38.0419 62.5072 37.9318 62.5689 37.781C62.7005 37.4588 62.7664 37.1285 62.7869 36.7819C62.8116 36.3864 62.1945 36.3904 62.1699 36.7819Z" fill="#46A358"/>
<path d="M36.2903 18.8844C36.0805 19.1862 35.8707 19.4879 35.6567 19.7897C35.4305 20.1159 35.9653 20.4217 36.1915 20.0996C36.4013 19.7978 36.6111 19.4961 36.8251 19.1943C37.0472 18.8681 36.5124 18.5622 36.2903 18.8844Z" fill="#46A358"/>
<path d="M34.5295 23.3455C34.4513 23.7166 34.3773 24.0876 34.2991 24.4628C34.221 24.8461 34.8134 25.0133 34.8956 24.6259C34.9738 24.2548 35.0478 23.8838 35.126 23.5086C35.2042 23.1253 34.6077 22.9622 34.5295 23.3455Z" fill="#46A358"/>
<path d="M34.3319 21.123C34.0069 21.5512 33.7642 22.0242 33.5997 22.5339C33.4763 22.909 34.0728 23.0681 34.1962 22.697C34.3484 22.2362 34.5746 21.8203 34.8667 21.4329C35.1053 21.1148 34.5664 20.8131 34.3319 21.123Z" fill="#46A358"/>
<path d="M33.0773 25.1803C33.0033 25.69 32.9251 26.1957 32.8511 26.7054C32.7935 27.0887 33.39 27.2559 33.4476 26.8685C33.5216 26.3588 33.5998 25.8531 33.6738 25.3434C33.7314 24.956 33.1349 24.7888 33.0773 25.1803Z" fill="#46A358"/>
<path d="M33.6944 28.1163C33.6409 28.626 33.6738 29.1276 33.7726 29.6292C33.8466 30.0165 34.4431 29.8534 34.3691 29.466C34.2827 29.0175 34.2662 28.5689 34.3156 28.1163C34.3485 27.7248 33.7314 27.7289 33.6944 28.1163Z" fill="#46A358"/>
<path d="M34.2003 31.9905C34.2332 32.2963 34.2702 32.6021 34.3031 32.908C34.3196 33.0711 34.4307 33.2138 34.6117 33.2138C34.7639 33.2138 34.9408 33.0752 34.9202 32.908C34.8873 32.6021 34.8503 32.2963 34.8174 31.9905C34.8009 31.8273 34.6898 31.6846 34.5088 31.6846C34.3566 31.6846 34.1838 31.8233 34.2003 31.9905Z" fill="#46A358"/>
<path d="M33.2008 34.2906C33.4394 34.678 33.6122 35.0857 33.7192 35.5302C33.8138 35.9135 34.4062 35.7504 34.3157 35.3671C34.1964 34.8778 33.9989 34.4129 33.7356 33.9807C33.5258 33.6463 32.9952 33.9562 33.2008 34.2906Z" fill="#46A358"/>
<path d="M34.5171 36.8635C34.587 37.0348 34.6528 37.202 34.7227 37.3733C34.7844 37.5241 34.9284 37.6342 35.1012 37.5853C35.2493 37.5445 35.3809 37.3651 35.3151 37.2102C35.2452 37.0389 35.1794 36.8717 35.1094 36.7004C35.0477 36.5495 34.9037 36.4394 34.731 36.4884C34.587 36.5251 34.4553 36.7086 34.5171 36.8635Z" fill="#46A358"/>
</g>
</svg>
